<svg xmlns="http://www.w3.org/2000/svg" width="32" height="32" viewBox="0 0 100 100" id="svgid3" repair="1" xmlns:xlink="http://www.w3.org/1999/xlink"><g id="MTBteHk2NTgxMDAwMDAwMDAwMHh6czY1NA"><linearGradient id="MTBteHk2NjYxMDAwMDAwMDAwMHh6czc4NQ" x1="369.264" x2="362.27" y1="-335.738" y2="-323.87" gradientUnits="userSpaceOnUse" gradientTransform="matrix(1 0 0 -1 -294 -250)"><stop offset="0" stop-opacity="0"></stop><stop offset="1"></stop></linearGradient><path fill="url(#MTBteHk2NjYxMDAwMDAwMDAwMHh6czc4NQ)" d="M44.088 90.575l45.49-26.707L100 69.978 55.645 96.94l-11.557-6.367" class="st0" opacity=".15"></path><path fill="rgb(208,222,226)" d="M93.94 64.43l-.01 3.28c0 .59-.39 1.18-1.17 1.63L52.94 92.37l-.01.01c-1.57.9-4.12.9-5.7 0-.01 0-.01 0-.01-.01L7.13 69.34c-.8-.46-1.19-1.06-1.19-1.66l.01-3.27c0-.59.39-1.19 1.17-1.64l39.83-23.03c1.57-.91 4.13-.91 5.71 0l40.08 23.03c.8.46 1.2 1.06 1.2 1.66z" class="st10" coriginal="rgb(208,222,226)" colortype="5" awdzp="5"></path><path d="M47.227 89.098L7.14 66.063c-.796-.456-1.192-1.056-1.19-1.655l-.01 3.274c-.003.6.395 1.2 1.188 1.655l40.088 23.036.01.005v-3.28z" class="st6" opacity=".1"></path><path d="M47.227 89.098v3.28c1.587.904 4.134.903 5.7 0l.01-.006v-3.27c-1.57.906-4.125.906-5.71-.004z" class="st3" opacity=".12"></path><path d="M92.77 66.063l-39.834 23.04v3.27L92.76 69.338c.78-.45 1.168-1.04 1.17-1.632l.01-3.273c-.002.59-.392 1.178-1.17 1.63z" class="st7" opacity=".2"></path></g><linearGradient id="MTBteHk3NTgxMDAwMDAwMDAwMHh6czY5" x1="70.221" x2="56.867" y1="79.748" y2="57.087" gradientUnits="userSpaceOnUse"><stop offset="0" stop-opacity="0"></stop><stop offset="1"></stop></linearGradient><path fill="url(#MTBteHk3NTgxMDAwMDAwMDAwMHh6czY5)" d="M67.247 55.656L39.857 71.84 61.6 84.145 89 68" class="st4" opacity=".15"></path><g><path fill="rgb(117,162,216)" d="M58.477 70.923c-.91.528-1.81 1.058-2.72 1.586l-.332.18-.012.01c-.125.07-.235.13-.357.21-.012.01-.037.02-.05.02-.11.06-.234.13-.368.2l-.37.17c-.024.013-.05.025-.062.037-2.374 1.11-4.627 1.247-6.177 1.134-2.8-.192-5.38-1.02-8.37-2.653-5.22-2.855-10.35-8.134-14.12-14.496-1.81-3.064-3.35-6.486-4.31-9.624-.78-2.55-.99-3.8-1.34-5.87-.11-.69-.19-1.6-.24-2.29-.04-.49-.05-1.158-.08-1.65.026-1.574.04-2.93.396-4.76.22-1.155.54-2.47 1.34-4.194.505-1.107 1.27-2.29 2.043-3.15 1.17-1.316 2.067-1.882 2.87-2.375.01-.01.02-.01.036-.022.05-.028.097-.06.146-.09.345-.197.7-.37 1.07-.518h.013c.014 0 .014-.013.025-.013.01-.013.01-.013.025-.013 10.22-5.965 18.472-6.42 24.86-4.573 11.172 3.236 16.573 13.5 16.573 13.5s14.25 23.366-10.506 39.23z" class="stshockcolor" data-st="fill:#75A2D8;;" coriginal="rgb(117,162,216)" colortype="20" awdzp="20"></path><path fill="rgb(255,255,255)" d="M60.84 56.856c-.443-4.44-1.846-9.08-3.95-13.473-.025-.075-.063-.136-.1-.21-.036-.098-.085-.196-.136-.294-.835-1.69-1.77-3.34-2.78-4.93-.233-.37-.468-.73-.713-1.09-.05-.09-.11-.17-.17-.25-.04-.077-.08-.138-.15-.2.02-.01.02-.01 0-.025-2.87-4.15-6.36-7.754-10.14-10.35-.6-.418-1.2-.8-1.82-1.157-.17-.11-.33-.195-.5-.294-1.57-.874-3.1-1.526-4.55-1.944-.28-.088-.55-.16-.82-.21-2.77-.678-5.29-.54-7.44.32-.01 0-.01 0-.02.01-.015 0-.015.01-.027.01h-.02c-.37.15-.723.32-1.07.518-.05.027-.1.064-.143.088-.016.016-.027.016-.038.028-.81.493-1.7 1.06-2.87 2.376-.78.86-1.54 2.045-2.04 3.15-.81 1.725-1.13 3.04-1.35 4.198-.357 1.835-.37 3.19-.395 4.765.025.49.037 1.156.074 1.647.05.69.125 1.6.235 2.29.352 2.068.562 3.32 1.34 5.87.96 3.138 2.5 6.56 4.305 9.624 3.764 6.36 8.895 11.64 14.113 14.496 2.99 1.633 5.573 2.46 8.367 2.654 1.55.113 3.806-.024 6.18-1.13.01-.014.036-.026.06-.038l.37-.175c.135-.07.26-.15.37-.21.01 0 .037-.01.05-.022.12-.074.23-.134.356-.21l.013-.01c.122-.088.233-.16.36-.246 3.295-2.324 5.28-6.803 5.203-12.97-.015-.86-.065-1.735-.15-2.622zM39.33 69.408c-9.697-5.39-17.658-18.876-17.795-30.1-.136-11.234 7.605-15.96 17.29-10.557.11.05.208.12.32.18 9.535 5.51 17.338 18.83 17.472 29.93.137 11.24-7.603 15.97-17.288 10.56z" class="st9" opacity=".4" coriginal="rgb(255,255,255)" colortype="0" awdzp="0"></path><path fill="rgb(255,255,255)" d="M58.477 70.923c-.91.528-1.81 1.058-2.72 1.586-.233.13-.47.27-.7.4-.013.01-.038.02-.05.02-.11.06-.235.13-.37.2l-.368.17c-.03.012-.05.024-.07.036-1.7.79-3.32 1.086-4.68 1.16l-1.19-2.967c5.04-.728 8.36-5.305 8.28-12.7-.08-5.267-1.86-11.027-4.74-16.208L69.06 31.8c.996 1.736 13.19 23.886-10.583 39.12z" class="st5" opacity=".2" coriginal="rgb(255,255,255)" colortype="0" awdzp="0"></path><path d="M56.62 58.847c.074 6.632-2.585 11-6.78 12.354-2.903.94-6.546.42-10.51-1.79-4.11-2.29-7.91-6.02-10.926-10.43-.222-.32-.444-.64-.653-.97-.45-.7-.88-1.41-1.29-2.14-.08-.14-.16-.27-.23-.42-2.85-5.17-4.61-10.9-4.69-16.13-.11-9.49 5.39-14.34 12.94-12.35 1.4.36 2.86.96 4.36 1.8.11.048.21.11.32.17 1.42.813 2.8 1.81 4.11 2.94.93.79 1.84 1.65 2.7 2.574 1.97 2.09 3.77 4.49 5.295 7.06.627 1.06 1.204 2.14 1.747 3.25 1.426 2.966 2.496 6.066 3.086 9.12.26 1.24.42 2.47.494 3.68.023.44.05.87.05 1.3z" class="st8" opacity=".4"></path><path d="M56.62 58.847c.074 6.632-2.585 11-6.78 12.354-1.39-.35-2.854-.95-4.357-1.79-4.11-2.29-7.91-6.02-10.925-10.43-.223-.32-.444-.64-.654-.97-.454-.7-.885-1.41-1.29-2.14-.087-.14-.16-.27-.234-.42-2.855-5.17-4.615-10.9-4.688-16.13-.074-6.63 2.584-11 6.78-12.35 1.39.36 2.855.96 4.355 1.8.11.048.208.11.32.17 1.415.813 2.794 1.81 4.11 2.94.923.79 1.834 1.65 2.694 2.574 1.97 2.09 3.77 4.49 5.3 7.06.63 1.06 1.21 2.14 1.75 3.25 1.43 2.966 2.5 6.066 3.09 9.12.26 1.24.42 2.47.49 3.68.03.44.05.87.05 1.3z" class="st6" opacity=".1"></path><g><path fill="rgb(222,220,217)" d="M52.99 44.746l-16.28 9.426h-.013l-6.56 3.803-1.66.96-.073.036c-.27.15-.555.23-.85.23-.64 0-1.255-.33-1.6-.92-.37-.66-.308-1.45.11-2.03.11-.15.246-.27.395-.38.04-.04.11-.07.17-.11l6.64-3.84v-.02l17.97-10.4c.62 1.06 1.2 2.14 1.74 3.25z" class="st12" coriginal="rgb(222,220,217)" colortype="3" awdzp="3"></path></g><g class="st6" opacity=".1"><path d="M52.99 44.746l-16.28 9.426h-.013l-6.56 3.803-1.66.96-.073.036c-.27.15-.555.23-.85.23-.64 0-1.255-.33-1.6-.92-.37-.66-.308-1.45.11-2.03.11-.15.246-.27.395-.38.04-.04.11-.07.17-.11l6.64-3.84v-.02l17.97-10.4c.62 1.06 1.2 2.14 1.74 3.25z"></path></g><g><path fill="rgb(222,220,217)" d="M56.57 57.543l-26.432.43-2.203.038h-.024c-.04 0-.11 0-.16-.01-.62-.05-1.18-.42-1.47-.98-.13-.24-.19-.5-.21-.77-.01-.27.04-.54.16-.8.04-.12.1-.24.19-.35l16.85-23.22c.93.79 1.84 1.65 2.7 2.57L33.28 51.9l-.012.023-1.698 2.34 5.13-.08h.014l19.368-.302c.26 1.24.418 2.47.492 3.68z" class="st12" coriginal="rgb(222,220,217)" colortype="3" awdzp="3"></path></g><circle cx="27.553" cy="56.438" r="6.153" fill="rgb(117,162,216)" class="stshockcolor" data-st="fill:#75A2D8;;" coriginal="rgb(117,162,216)" colortype="20" awdzp="20"></circle><circle cx="25.724" cy="55.356" r="3.067" fill="rgb(255,255,255)" fill-rule="evenodd" class="st2" opacity=".3" clip-rule="evenodd" coriginal="rgb(255,255,255)" colortype="0" awdzp="0"></circle></g></svg>