<svg xmlns="http://www.w3.org/2000/svg" width="32" height="32" viewBox="0 0 100 100" id="svgid8" repair="1" xmlns:xlink="http://www.w3.org/1999/xlink"><g id="MTBteHkxODAxMDAwMDAwMDAwMHh6czM1OQ"><linearGradient id="MTBteHk1OTkxMDAwMDAwMDAwMHh6czUwMA" x1="957.263" x2="950.269" y1="-1026.739" y2="-1014.871" gradientUnits="userSpaceOnUse" gradientTransform="matrix(1 0 0 -1 -882 -941)"><stop offset="0" stop-opacity="0"></stop><stop offset="1"></stop></linearGradient><path fill="url(#MTBteHk1OTkxMDAwMDAwMDAwMHh6czUwMA)" d="M44.088 90.575l45.49-26.707L100 69.978 55.645 96.94l-11.557-6.365" class="st0" opacity=".15"></path><path fill="rgb(208,222,226)" d="M93.94 64.43l-.01 3.28c0 .59-.393 1.18-1.173 1.63L52.94 92.37l-.01.01c-1.57.9-4.123.9-5.702 0-.01 0-.01 0-.01-.01L7.13 69.34c-.8-.46-1.19-1.06-1.19-1.66l.01-3.27c0-.59.39-1.19 1.17-1.64l39.83-23.03c1.57-.91 4.13-.91 5.71 0l40.08 23.03c.8.46 1.2 1.06 1.2 1.66z" class="st8" coriginal="rgb(208,222,226)" colortype="5" awdzp="5"></path><path d="M47.227 89.098L7.14 66.063c-.796-.455-1.192-1.056-1.19-1.653l-.01 3.272c-.003.602.395 1.2 1.188 1.655l40.088 23.036.01.005v-3.28z" class="st10" opacity=".1"></path><path d="M47.227 89.098v3.28c1.587.904 4.134.903 5.7 0l.01-.006v-3.27c-1.57.906-4.125.906-5.71-.004z" class="st5" opacity=".12"></path><path d="M92.77 66.063l-39.834 23.04v3.27l39.826-23.035c.777-.45 1.166-1.04 1.168-1.632l.01-3.272c-.002.587-.392 1.177-1.17 1.63z" class="st3" opacity=".2"></path></g><linearGradient id="MTBteHkyNjgxMDAwMDAwMDAwMHh6czI1Mg" x1="641.09" x2="633.45" y1="757.108" y2="750.776" gradientUnits="userSpaceOnUse" gradientTransform="translate(-588 -691)"><stop offset="0" stop-opacity="0"></stop><stop offset="1"></stop></linearGradient><path fill="url(#MTBteHkyNjgxMDAwMDAwMDAwMHh6czI1Mg)" d="M45.564 57.568L36.77 62.68l30.983 17.886 8.795-5.11" class="st7" opacity=".15"></path><g><g><path fill="rgb(117,162,216)" d="M39.138 57.477l8.795-5.11c-1.457.848-2.36 2.647-2.368 5.202l-8.794 5.11c.01-2.56.91-4.36 2.37-5.21z" class="stshockcolor" data-st="fill:#75A2D8;;" coriginal="rgb(117,162,216)" colortype="20" awdzp="20"></path><path d="M39.138 57.477l8.795-5.11c-1.457.848-2.36 2.647-2.368 5.202l-8.794 5.11c.01-2.56.91-4.36 2.37-5.21z" class="st9" opacity=".25"></path></g><path fill="rgb(117,162,216)" d="M44.92 54.646c6.105 3.524 11.05 12.088 11.03 19.104l-.737-.425-2.218-1.28c.015-5.144-3.61-11.423-8.086-14.006-4.49-2.59-8.13-.51-8.14 4.64l-2.21-1.28-.75-.43c.02-7.02 4.99-9.86 11.1-6.33z" class="stshockcolor" data-st="fill:#75A2D8;;" coriginal="rgb(117,162,216)" colortype="20" awdzp="20"></path></g><path fill="rgb(247,201,11)" d="M44.938 47.872C54.305 53.28 61.88 66.396 61.852 77.16l-.738-.426-2.952-1.707.735.427c.025-8.888-6.23-19.726-13.967-24.195-7.74-4.47-14.035-.88-14.06 8.01l.736.42-2.948-1.7-.736-.43c.03-10.77 7.648-15.11 17.016-9.7z" class="st4" coriginal="rgb(247,201,11)" colortype="15" awdzp="15"></path><path fill="rgb(188,190,44)" d="M44.93 51.26c7.74 4.47 13.993 15.307 13.968 24.194l-3.687-2.127.74.425c.02-7.018-4.92-15.58-11.03-19.105-6.1-3.525-11.08-.69-11.1 6.328l.75.428-3.69-2.13c.03-8.89 6.32-12.483 14.06-8.014z" class="st1" coriginal="rgb(188,190,44)" colortype="26" awdzp="26"></path><path fill="rgb(241,162,29)" d="M44.948 44.478c11 6.35 19.887 21.745 19.85 34.383l-3.685-2.12.738.43c.03-10.76-7.54-23.88-16.91-29.28-9.37-5.41-16.98-1.062-17.02 9.7l.74.427-3.69-2.13c.04-12.642 8.99-17.74 19.99-11.39z" class="st2" coriginal="rgb(241,162,29)" colortype="21" awdzp="21"></path><g fill="rgb(222,112,71)" coriginal="rgb(222,112,71)" colortype="29" awdzp="29"><path d="M64.8 78.86l-.737-.424M25.703 56.29l-.736-.426M76.55 75.46l-8.8 5.11-2.95-1.71c.03-12.642-8.85-28.03-19.85-34.38S25 43.22 24.97 55.86l-2.95-1.7c.02-7.21 2.57-12.27 6.67-14.66l8.79-5.11c4.16-2.42 9.92-2.08 16.27 1.59 12.63 7.29 22.84 24.97 22.8 39.48z" class="st12"></path></g><path fill="rgb(255,255,255)" d="M28.688 39.498l8.794-5.11c4.158-2.417 9.915-2.076 16.27 1.592l-8.795 5.11c-6.353-3.668-12.11-4.008-16.27-1.592z" class="st6" opacity=".1" coriginal="rgb(255,255,255)" colortype="0" awdzp="0"></path><path d="M44.957 41.09l8.795-5.11C66.38 43.27 76.59 60.947 76.548 75.456l-8.795 5.11c.042-14.507-10.17-32.186-22.796-39.476z" class="st13" opacity=".15"></path></svg>