<svg xmlns="http://www.w3.org/2000/svg" width="886" height="654.301" viewBox="0 0 886 654.3011" id="svgid2" repair="1" xmlns:xlink="http://www.w3.org/1999/xlink"><path d="M377.697 443.685s117.663-14.12 158.845-36.475 347.105-32.946 347.105 36.475l-351.811 100.013-184.73-10.59z" fill="rgb(251,190,190)" coriginal="rgb(251,190,190)" colortype="7" awdzp="7"></path><path d="M377.697 443.685s117.663-14.12 158.845-36.475 347.105-32.946 347.105 36.475l-351.811 100.013-184.73-10.59z" opacity=".1"></path><path d="M411.819 430.742l-24.709 71.774-387.11 4.707v-105.896s148.255-34.122 265.918 38.829c0 0 138.842-16.473 145.902-9.413z" fill="rgb(108,99,255)" coriginal="rgb(108,99,255)" colortype="12" awdzp="12"></path><path d="M411.819 430.626l-24.709 71.774-387.11 4.707v-105.896s148.255-34.122 265.918 38.829c0 0 138.842-16.473 145.902-9.413z" opacity=".1"></path><path d="M1011.404 523.337c0 4.01-8.993 6.987-9.877 10.856-.877 3.837 4.466 9.672 2.775 13.336a72.563 72.563 0 0 1-6.172 10.733c-2.215 3.171-9.057 2.708-11.862 5.682a94.319 94.319 0 0 1-8.712 7.576c-2.977 2.476-7.01 2.995-10.395 5.274-3.219 2.167-2.829 10.116-6.389 12.089-3.402 1.886-8.61.369-12.3 2.064-3.542 1.627-5.41 7.511-9.197 8.95-3.652 1.388-8.173.79-12.034 1.992-3.737 1.163-7.918.974-11.834 1.954-3.803.951-6.707 6.651-10.662 7.419-3.854.749-8.371-1.248-12.356-.681-3.892.554-8.418-4.372-12.421-3.999-3.918.365-7.611 2.645-11.624 2.829-3.935.181-7.825 1.914-11.839 1.914-4.013 0-8.155 3.765-12.089 3.585-4.013-.184-7.646-5.891-11.564-6.256-4.004-.373-8.779 5.589-12.671 5.035-3.985-.567-7.141-6.402-10.995-7.151-3.957-.769-9.067 3.402-12.87 2.451-3.916-.979-6.241-7.768-9.978-8.931-3.861-1.202-8.647.426-12.299-.962-3.788-1.439-8.402-1.208-11.944-2.835-3.69-1.695-6.339-5.706-9.742-7.591-3.56-1.973-5.202-6.867-8.421-9.035-3.385-2.279-8.543-1.988-11.52-4.464-3.143-2.614-9.032-2.75-11.684-5.563-2.805-2.974-3.94-7.969-6.155-11.141-2.333-3.34 2.245-10.403.617-13.933-1.69-3.664-8.756-5.152-9.632-8.989a56.435 56.435 0 0 1-1.384-12.207c0-4.01 6.043-7.075 6.927-10.943.877-3.837-3.571-9.348-1.88-13.012 1.629-3.531 1.421-8.959 3.754-12.3 2.215-3.171 7.742-4.415 10.548-7.389 2.652-2.812 7.4-3.596 10.543-6.21 2.977-2.476 2.598-9.942 5.983-12.221 3.219-2.167 7.712-3.156 11.273-5.129 3.402-1.886 8.217-1.568 11.907-3.263 3.542-1.627 9.091 1.579 12.877.14 3.652-1.388 6.614-4.421 10.476-5.623 3.737-1.163 5.493-10.035 9.409-11.014 3.803-.951 8.481.628 12.437-.141 3.854-.749 9.04 6.251 13.025 5.684 3.892-.554 6.802-9.898 10.806-10.27 3.918-.365 8.337 4.475 12.349 4.29 3.935-.181 7.886 2.655 11.9 2.655 4.013 0 8.012-3.892 11.946-3.711 4.013.184 7.551 5.327 11.469 5.692 4.004.373 8.919-7.45 12.811-6.896 3.985.567 7.064 6.614 10.918 7.363 3.957.769 8.912-2.986 12.716-2.034 3.916.979 6.273 7.407 10.01 8.57 3.861 1.202 6.24 5.736 9.892 7.124 3.788 1.439 10.823-5.294 14.366-3.667 3.69 1.695 6.878 4.628 10.28 6.514 3.56 1.973 9.22.981 12.439 3.148 3.385 2.279 4.218 8.398 7.195 10.874 3.143 2.614 8.327 3.401 10.98 6.213 2.805 2.974 3.195 8.304 5.41 11.476 2.333 3.34 2.26 7.969 3.888 11.499 1.69 3.664 6.202 6.435 7.078 10.271.884 3.867 3.502 8.301 3.502 12.31z" transform="translate(-157 -122.599)" fill="rgb(63,61,86)" coriginal="rgb(63,61,86)" colortype="30" awdzp="30"></path><path d="M430.645 474.277s132.959-68.244 218.853-42.359 205.91-18.826 220.029-3.53 34.122 180.024-135.312 189.437l-314.159-28.239z" fill="rgb(251,190,190)" coriginal="rgb(251,190,190)" colortype="7" awdzp="7"></path><path d="M399.334 467.009s52.491-3.322 50.138 15.504-4.707 164.728-18.826 168.258-125.899 3.53-171.788 3.53h-258.858v-225.574s183.554-10.928 275.331 34.961c0 0 110.341-1.593 124.003 3.322z" fill="rgb(108,99,255)" coriginal="rgb(108,99,255)" colortype="12" awdzp="12"></path><path d="M802.239 236.779a27.041 27.041 0 0 0-23.309 16.297c-5.828 14.089 1.676 30.638 12.942 40.912s25.737 16.146 38.886 23.865c17.661 10.368 33.53 24.76 42.367 43.234s9.776 41.359-.611 59.008c-9.641 16.381-27.171 26.186-43.891 35.228M849.304 150.885a27.041 27.041 0 0 0-23.309 16.297c-5.828 14.089 1.676 30.638 12.942 40.912s25.737 16.146 38.886 23.865c17.661 10.368 33.53 24.76 42.367 43.234s9.776 41.359-.611 59.008c-9.641 16.381-27.171 26.186-43.891 35.228M1004.051 170.64a27.041 27.041 0 0 0-28.408-1.382c-13.233 7.572-17.431 25.252-14.812 40.272s10.467 28.523 16.138 42.675c7.618 19.009 11.356 40.104 7.034 60.122s-17.588 38.688-36.606 46.285c-17.652 7.051-37.515 4.072-56.271.987" transform="translate(-157 -122.599)" stroke="#3f3d56" stroke-miterlimit="10" fill="none"></path><ellipse cx="710.683" cy="211.889" rx="28.239" ry="13.716" fill="rgb(87,184,148)" coriginal="rgb(87,184,148)" colortype="15" awdzp="15"></ellipse><ellipse cx="707.153" cy="209.536" rx="28.239" ry="13.716" stroke="#3f3d56" stroke-miterlimit="10" fill="none"></ellipse><ellipse cx="771.867" cy="200.123" rx="28.239" ry="13.716" fill="rgb(87,184,148)" coriginal="rgb(87,184,148)" colortype="15" awdzp="15"></ellipse><ellipse cx="768.337" cy="197.77" rx="28.239" ry="13.716" stroke="#3f3d56" stroke-miterlimit="10" fill="none"></ellipse><ellipse cx="781.28" cy="251.895" rx="28.239" ry="13.716" fill="rgb(87,184,148)" coriginal="rgb(87,184,148)" colortype="15" awdzp="15"></ellipse><ellipse cx="777.75" cy="249.541" rx="28.239" ry="13.716" stroke="#3f3d56" stroke-miterlimit="10" fill="none"></ellipse><ellipse cx="775.397" cy="122.466" rx="28.239" ry="13.716" fill="rgb(87,184,148)" coriginal="rgb(87,184,148)" colortype="15" awdzp="15"></ellipse><ellipse cx="771.867" cy="120.113" rx="28.239" ry="13.716" stroke="#3f3d56" stroke-miterlimit="10" fill="none"></ellipse><ellipse cx="704.799" cy="114.229" rx="28.239" ry="13.716" fill="rgb(87,184,148)" coriginal="rgb(87,184,148)" colortype="15" awdzp="15"></ellipse><ellipse cx="701.27" cy="111.876" rx="28.239" ry="13.716" stroke="#3f3d56" stroke-miterlimit="10" fill="none"></ellipse><ellipse cx="736.568" cy="84.814" rx="28.239" ry="13.716" fill="rgb(87,184,148)" coriginal="rgb(87,184,148)" colortype="15" awdzp="15"></ellipse><ellipse cx="733.039" cy="82.46" rx="28.239" ry="13.716" stroke="#3f3d56" stroke-miterlimit="10" fill="none"></ellipse><ellipse cx="805.989" cy="90.697" rx="28.239" ry="13.716" fill="rgb(87,184,148)" coriginal="rgb(87,184,148)" colortype="15" awdzp="15"></ellipse><ellipse cx="802.46" cy="88.344" rx="28.239" ry="13.716" stroke="#3f3d56" stroke-miterlimit="10" fill="none"></ellipse><ellipse cx="857.761" cy="129.526" rx="28.239" ry="13.716" fill="rgb(87,184,148)" coriginal="rgb(87,184,148)" colortype="15" awdzp="15"></ellipse><ellipse cx="854.231" cy="127.172" rx="28.239" ry="13.716" stroke="#3f3d56" stroke-miterlimit="10" fill="none"></ellipse><ellipse cx="675.384" cy="61.281" rx="28.239" ry="13.716" fill="rgb(87,184,148)" coriginal="rgb(87,184,148)" colortype="15" awdzp="15"></ellipse><ellipse cx="671.854" cy="58.928" rx="28.239" ry="13.716" stroke="#3f3d56" stroke-miterlimit="10" fill="none"></ellipse><ellipse cx="693.033" cy="16.569" rx="28.239" ry="13.716" fill="rgb(87,184,148)" coriginal="rgb(87,184,148)" colortype="15" awdzp="15"></ellipse><ellipse cx="689.503" cy="14.216" rx="28.239" ry="13.716" stroke="#3f3d56" stroke-miterlimit="10" fill="none"></ellipse><ellipse cx="856.584" cy="49.515" rx="28.239" ry="13.716" fill="rgb(87,184,148)" coriginal="rgb(87,184,148)" colortype="15" awdzp="15"></ellipse><ellipse cx="853.054" cy="47.162" rx="28.239" ry="13.716" stroke="#3f3d56" stroke-miterlimit="10" fill="none"></ellipse><ellipse cx="596.55" cy="157.765" rx="28.239" ry="13.716" fill="rgb(87,184,148)" coriginal="rgb(87,184,148)" colortype="15" awdzp="15"></ellipse><ellipse cx="593.02" cy="155.411" rx="28.239" ry="13.716" stroke="#3f3d56" stroke-miterlimit="10" fill="none"></ellipse><ellipse cx="694.21" cy="150.705" rx="28.239" ry="13.716" fill="rgb(87,184,148)" coriginal="rgb(87,184,148)" colortype="15" awdzp="15"></ellipse><ellipse cx="690.68" cy="148.352" rx="28.239" ry="13.716" stroke="#3f3d56" stroke-miterlimit="10" fill="none"></ellipse><ellipse cx="822.462" cy="161.294" rx="28.239" ry="13.716" fill="rgb(87,184,148)" coriginal="rgb(87,184,148)" colortype="15" awdzp="15"></ellipse><ellipse cx="818.932" cy="158.941" rx="28.239" ry="13.716" stroke="#3f3d56" stroke-miterlimit="10" fill="none"></ellipse><ellipse cx="754.218" cy="166.001" rx="28.239" ry="13.716" fill="rgb(87,184,148)" coriginal="rgb(87,184,148)" colortype="15" awdzp="15"></ellipse><ellipse cx="750.688" cy="163.648" rx="28.239" ry="13.716" stroke="#3f3d56" stroke-miterlimit="10" fill="none"></ellipse><ellipse cx="758.924" cy="48.338" rx="28.239" ry="13.716" fill="rgb(87,184,148)" coriginal="rgb(87,184,148)" colortype="15" awdzp="15"></ellipse><ellipse cx="755.394" cy="45.985" rx="28.239" ry="13.716" stroke="#3f3d56" stroke-miterlimit="10" fill="none"></ellipse><ellipse cx="637.732" cy="121.289" rx="28.239" ry="13.716" fill="rgb(87,184,148)" coriginal="rgb(87,184,148)" colortype="15" awdzp="15"></ellipse><ellipse cx="634.202" cy="118.936" rx="28.239" ry="13.716" stroke="#3f3d56" stroke-miterlimit="10" fill="none"></ellipse><ellipse cx="654.205" cy="174.237" rx="28.239" ry="13.716" fill="rgb(87,184,148)" coriginal="rgb(87,184,148)" colortype="15" awdzp="15"></ellipse><ellipse cx="650.675" cy="171.884" rx="28.239" ry="13.716" stroke="#3f3d56" stroke-miterlimit="10" fill="none"></ellipse><g opacity=".3"><ellipse cx="806.269" cy="387.365" rx="14.794" ry="6.407" transform="translate(-82.222 779.588) rotate(-60.799)" fill="rgb(87,184,148)" coriginal="rgb(87,184,148)" colortype="15" awdzp="15"></ellipse><ellipse cx="804.407" cy="388.443" rx="14.794" ry="6.407" transform="translate(-84.117 778.515) rotate(-60.799)" stroke="#3f3d56" stroke-miterlimit="10" fill="none"></ellipse></g><g opacity=".3"><ellipse cx="948.032" cy="414.816" rx="6.407" ry="14.794" transform="translate(-150.306 722.006) rotate(-48.172)" fill="rgb(87,184,148)" coriginal="rgb(87,184,148)" colortype="15" awdzp="15"></ellipse><ellipse cx="947.387" cy="412.764" rx="6.407" ry="14.794" transform="translate(-148.992 720.842) rotate(-48.172)" stroke="#3f3d56" stroke-miterlimit="10" fill="none"></ellipse></g><g opacity=".3"><ellipse cx="816.25" cy="340.689" rx="6.407" ry="14.794" transform="translate(-138.967 599.116) rotate(-48.172)" fill="rgb(87,184,148)" coriginal="rgb(87,184,148)" colortype="15" awdzp="15"></ellipse><ellipse cx="815.605" cy="338.636" rx="6.407" ry="14.794" transform="translate(-137.653 597.952) rotate(-48.172)" stroke="#3f3d56" stroke-miterlimit="10" fill="none"></ellipse></g></svg>