<!--?undefined undefined?--><svg xmlns="http://www.w3.org/2000/svg" id="svgid6" viewBox="0 0 600 600" repair="1" xmlns:xlink="http://www.w3.org/1999/xlink"><path fill="rgb(243,239,239)" fill-rule="evenodd" d="M319.5 181.1S156.1 72.7 82.4 111.7s147.5 294.9 147.5 294.9 284.8 118.5 296.4 85.3c11.6-33.3-109.9-202.4-109.9-202.4l-96.9-108.4z" opacity=".7" clip-rule="evenodd" coriginal="rgb(243,239,239)" colortype="1" awdzp="1"></path><path fill="rgb(22,134,131)" fill-rule="evenodd" d="M497.9 348.9c11.3-79.3-16.4-172.1-74.2-216.9-49.3-38.2-138.3-39.1-208.4-18.2C141.6 82 69.8 63.2 51.5 88.7c-19.6 27.4 4.3 91.4 52.4 161.8-1.2 67 24.9 147.1 82.8 192 52.9 41 127.2 59.8 190.2 45.9 79 35 152.9 46.4 173.1 18.3 17.6-24.6-9.6-91-52.1-157.8m-260.1 14.5S41.2 139.8 104.1 119.3 325.5 215 325.5 215 186 150.8 167 176.4c-19.1 25.5 70.8 187 70.8 187m142.8 74.3s93.5 34.1 113 27.3c19.5-6.8-25.3-83.8-25.3-83.8s57.5 60.4 54.6 96.5c-3 36-142.3-40-142.3-40" clip-rule="evenodd" coriginal="rgb(22,134,131)" colortype="8" awdzp="8"></path><path fill="rgb(243,239,239)" fill-rule="evenodd" d="M390.9 424.3c-5.6-99.9-105.6-116-103.7-194.7 1.6-67.8 35.5-71.8 68.8-33.5l8 65.4 14.6-2-2.9-148.1-29.2 5.8 6.4 52.9c-13.6-14.2-32.8-31.4-55-33.9-31.6-3.5-54.2 47.4-49.6 84.9 14.1 114 126.2 123.4 117 206.2-7.2 64.8-57.8 44.4-80.3 25.3-2.5-28.9-4.9-55.7-4.9-55.7l-17.5-2.9-1 117.9s29.2 14.6 29.2 10.7c0-1.1-.8-10.9-2-24.7 17.2 12.4 39 23.8 57.3 21.6 25.8-3.1 48.9-23.6 44.8-95.2" clip-rule="evenodd" coriginal="rgb(243,239,239)" colortype="1" awdzp="1"></path></svg>