<?xml version="1.0" encoding="UTF-8" standalone="no"?>
<!--?undefined undefined?-->

<svg
   xmlns:dc="http://purl.org/dc/elements/1.1/"
   xmlns:cc="http://creativecommons.org/ns#"
   xmlns:rdf="http://www.w3.org/1999/02/22-rdf-syntax-ns#"
   xmlns:svg="http://www.w3.org/2000/svg"
   xmlns="http://www.w3.org/2000/svg"
   xmlns:sodipodi="http://sodipodi.sourceforge.net/DTD/sodipodi-0.dtd"
   xmlns:inkscape="http://www.inkscape.org/namespaces/inkscape"
   id="svgid6"
   viewBox="0 0 600 600"
   repair="1"
   version="1.1"
   sodipodi:docname="s_style.svg"
   inkscape:version="0.92.4 (5da689c313, 2019-01-14)">
  <metadata
     id="metadata8251">
    <rdf:RDF>
      <cc:Work
         rdf:about="">
        <dc:format>image/svg+xml</dc:format>
        <dc:type
           rdf:resource="http://purl.org/dc/dcmitype/StillImage" />
        <dc:title></dc:title>
      </cc:Work>
    </rdf:RDF>
  </metadata>
  <defs
     id="defs8249" />
  <sodipodi:namedview
     pagecolor="#ffffff"
     bordercolor="#666666"
     borderopacity="1"
     objecttolerance="10"
     gridtolerance="10"
     guidetolerance="10"
     inkscape:pageopacity="0"
     inkscape:pageshadow="2"
     inkscape:window-width="1920"
     inkscape:window-height="1046"
     id="namedview8247"
     showgrid="false"
     inkscape:zoom="1.1125147"
     inkscape:cx="389.4376"
     inkscape:cy="287.70384"
     inkscape:window-x="-11"
     inkscape:window-y="-11"
     inkscape:window-maximized="1"
     inkscape:current-layer="svgid6" />
  <path
     style="color:#000000;font-style:normal;font-variant:normal;font-weight:normal;font-stretch:normal;font-size:medium;line-height:normal;font-family:sans-serif;font-variant-ligatures:normal;font-variant-position:normal;font-variant-caps:normal;font-variant-numeric:normal;font-variant-alternates:normal;font-feature-settings:normal;text-indent:0;text-align:start;text-decoration:none;text-decoration-line:none;text-decoration-style:solid;text-decoration-color:#000000;letter-spacing:normal;word-spacing:normal;text-transform:none;writing-mode:lr-tb;direction:ltr;text-orientation:mixed;dominant-baseline:auto;baseline-shift:baseline;text-anchor:start;white-space:normal;shape-padding:0;clip-rule:evenodd;display:inline;overflow:visible;visibility:visible;opacity:0.7;isolation:auto;mix-blend-mode:normal;color-interpolation:sRGB;color-interpolation-filters:linearRGB;solid-color:#000000;solid-opacity:1;vector-effect:none;fill-opacity:1;fill-rule:evenodd;stroke:#969696;stroke-width:2;stroke-linecap:butt;stroke-linejoin:miter;stroke-miterlimit:4;stroke-dasharray:none;stroke-dashoffset:0;stroke-opacity:1;color-rendering:auto;image-rendering:auto;shape-rendering:auto;text-rendering:auto;enable-background:accumulate;fill:none"
     d="m 122.55273,102.73633 c -14.9906,-0.12905 -28.775998,2.37741 -40.386714,8.52148 -9.358096,4.95205 -14.070055,13.41653 -15.085938,24.26367 -1.015883,10.84715 1.602326,24.09861 6.802734,38.875 10.400818,29.5528 31.159498,65.21392 54.214848,99.65625 46.1107,68.88467 101.42382,132.875 101.42382,132.875 l 0.0781,0.0879 0.10742,0.0469 c 0,0 71.20899,29.62808 143.87695,55.10938 36.33399,12.74064 73.03054,24.44557 101.39844,30.89453 14.18395,3.22447 26.28221,5.1378 35.24805,5.20117 4.48292,0.0317 8.18324,-0.3962 10.99414,-1.38281 2.8109,-0.98662 4.7617,-2.5731 5.54687,-4.82032 1.51623,-4.3526 0.84168,-10.70413 -1.38281,-18.55859 -2.22449,-7.85446 -6.02902,-17.2108 -10.91601,-27.49414 -9.77399,-20.56669 -23.87963,-44.83683 -38.34766,-68.06445 -28.93605,-46.45525 -59.31836,-88.73829 -59.31836,-88.73829 l -0.0156,-0.0215 -96.96094,-108.46875 -0.0527,-0.0352 c 0,0 -40.87825,-27.12 -90.98632,-49.36523 -25.05404,-11.12262 -52.41856,-21.02956 -78.16211,-25.71875 -9.65384,-1.75845 -19.08181,-2.78585 -28.07618,-2.86328 z m -0.002,1.0039 c 8.92165,0.0758 18.29016,1.09165 27.89844,2.8418 25.62207,4.66706 52.92708,14.54801 77.93555,25.65039 49.93162,22.1669 90.65015,49.16179 90.78906,49.25391 l 96.83789,108.33203 c 0.03,0.0418 30.36402,42.2614 59.26367,88.6582 14.45697,23.20988 28.55016,47.45966 38.29492,67.96485 4.87238,10.25259 8.6577,19.57086 10.85742,27.33789 2.19973,7.76702 2.78417,13.98463 1.40039,17.95703 -0.66516,1.902 -2.2989,3.28031 -4.93359,4.20508 -2.63539,0.92501 -6.24346,1.35737 -10.6582,1.32617 -8.82948,-0.0624 -20.88395,-1.96159 -35.03125,-5.17774 -28.2946,-6.43229 -64.97305,-18.12697 -101.28906,-30.86132 -72.54344,-25.43764 -143.54147,-54.97475 -143.71485,-55.04688 -0.22673,-0.26237 -55.3039,-64.01178 -101.27344,-132.68555 -23.03214,-34.40767 -43.755501,-70.03443 -54.101558,-99.43164 -5.173029,-14.6986 -7.743882,-27.83699 -6.75,-38.44922 0.993882,-10.61222 5.491689,-18.6747 14.558594,-23.47265 11.420533,-6.04343 25.046604,-8.52873 39.916014,-8.40235 z"
     id="path8240"
     inkscape:connector-curvature="0" />
  <path
     style="color:#000000;font-style:normal;font-variant:normal;font-weight:normal;font-stretch:normal;font-size:medium;line-height:normal;font-family:sans-serif;font-variant-ligatures:normal;font-variant-position:normal;font-variant-caps:normal;font-variant-numeric:normal;font-variant-alternates:normal;font-feature-settings:normal;text-indent:0;text-align:start;text-decoration:none;text-decoration-line:none;text-decoration-style:solid;text-decoration-color:#000000;letter-spacing:normal;word-spacing:normal;text-transform:none;writing-mode:lr-tb;direction:ltr;text-orientation:mixed;dominant-baseline:auto;baseline-shift:baseline;text-anchor:start;white-space:normal;shape-padding:0;clip-rule:evenodd;display:inline;overflow:visible;visibility:visible;opacity:1;isolation:auto;mix-blend-mode:normal;color-interpolation:sRGB;color-interpolation-filters:linearRGB;solid-color:#000000;solid-opacity:1;vector-effect:none;fill-opacity:1;fill-rule:evenodd;stroke:#969696;stroke-width:2;stroke-linecap:butt;stroke-linejoin:miter;stroke-miterlimit:4;stroke-dasharray:none;stroke-dashoffset:0;stroke-opacity:1;color-rendering:auto;image-rendering:auto;shape-rendering:auto;text-rendering:auto;enable-background:accumulate;fill:none"
     d="m 82.746094,76.316406 c -2.934468,0.05484 -5.725069,0.24587 -8.359375,0.580078 -10.537224,1.336836 -18.610701,4.987247 -23.292969,11.511719 -9.963126,13.928047 -8.815911,36.934827 0.744141,65.226567 9.548083,28.25632 27.54166,61.8373 51.564449,97.01562 -1.15856,67.10469 24.96779,147.24767 82.99219,192.24414 52.97637,41.05919 127.31377,59.89531 190.45313,46.02344 39.48056,17.47775 77.68239,29.07438 108.59179,32.79101 15.4745,1.8607 29.12336,1.74911 40.20508,-0.60351 11.08172,-2.35262 19.61803,-6.95795 24.76172,-14.11328 v -0.002 c 4.4974,-6.28613 6.09726,-15.16873 5.35352,-25.96484 -0.74375,-10.79611 -3.83458,-23.52577 -8.80079,-37.56641 -9.9172,-28.03829 -27.32286,-61.3047 -48.54296,-94.67578 C 509.67019,269.35727 481.96377,176.52786 424.00586,131.60547 374.51875,93.260489 285.51851,92.391518 215.33008,113.27344 178.51653,97.39845 142.18487,84.762352 112.7168,79.271484 101.64937,77.209259 91.549496,76.15188 82.746094,76.316406 Z m 0.01758,1.001953 c 8.708511,-0.161401 18.749458,0.882147 29.769528,2.935547 29.38686,5.475734 65.73968,18.115059 102.56836,34.005864 l 0.16797,0.0723 0.17383,-0.0527 c 69.98519,-20.865772 158.87847,-19.908648 207.95117,18.11523 57.59689,44.64257 85.28598,137.30246 74.00977,216.43555 l 0.49414,0.0703 -0.41992,0.26758 c 21.23565,33.37745 38.64451,66.65432 48.5371,94.62305 4.9463,13.98436 8.01172,26.64259 8.7461,37.30273 0.73438,10.66014 -0.86537,19.30059 -5.16797,25.31445 -4.95631,6.89467 -13.23172,11.40145 -24.15625,13.72071 -10.92453,2.31925 -24.47645,2.43969 -39.87695,0.58789 -30.801,-3.7036 -68.9934,-15.28869 -108.45899,-32.77344 l -0.14844,-0.0664 -0.16015,0.0352 C 313.96636,501.77385 239.78518,483.01194 187.00586,442.10547 129.27592,397.33735 103.20284,317.37284 104.40039,250.50977 l 0.002,-0.16016 -0.0898,-0.13086 C 80.280553,215.04517 62.302057,181.47271 52.787109,153.31445 43.272482,125.15714 42.270416,102.46431 51.90625,88.992188 v -0.002 c 4.467863,-6.224816 12.232784,-9.785354 22.607422,-11.101562 2.593819,-0.329073 5.347163,-0.516512 8.25,-0.570313 z m 41.355468,39.105471 c -7.41199,-0.27285 -14.20528,0.45515 -20.17383,2.40039 -8.026284,2.61588 -12.003333,8.59759 -12.658201,16.81055 -0.654867,8.21295 1.895188,18.68073 6.703125,30.64062 9.615876,23.91978 28.308526,53.8045 48.962886,83.05078 41.30873,58.49256 90.47071,114.4043 90.47071,114.4043 l 0.3789,-0.33203 0.4336,-0.24219 c 0,0 -22.46762,-40.36195 -42.54492,-83.90234 -10.03866,-21.7702 -19.47884,-44.33614 -25.20899,-63.02344 -2.86507,-9.34365 -4.80068,-17.71939 -5.42578,-24.51953 -0.6251,-6.80015 0.0886,-12.00088 2.34375,-15.01172 l 0.002,-0.002 c 2.25795,-3.04229 6.3646,-4.80673 11.92383,-5.49219 5.55923,-0.68546 12.53123,-0.28526 20.37891,0.91992 15.69536,2.41036 34.898,8.02751 53.50781,14.44727 37.21962,12.83951 72.07813,28.88281 72.07813,28.88281 l 0.5039,-0.85742 c 0,0 -39.64407,-29.06665 -87.16406,-55.57227 -23.75999,-13.25281 -49.48874,-25.86778 -73.24024,-33.89453 -14.84468,-5.01672 -28.91817,-8.25228 -41.27148,-8.70703 z m -0.0332,1.01367 c 12.20659,0.45415 26.1982,3.64368 40.98437,8.64062 23.65788,7.99512 49.34671,20.58563 73.07422,33.82032 43.58666,24.31169 77.12843,48.44278 82.86524,52.59765 -6.30085,-2.85649 -34.15504,-15.37568 -67.47266,-26.86914 -18.64019,-6.43024 -37.87505,-12.06309 -53.67969,-14.49023 -7.90232,-1.21357 -14.94595,-1.62743 -20.65234,-0.92383 -5.7064,0.7036 -10.11537,2.53095 -12.60742,5.88867 -2.51857,3.36432 -3.17243,8.78982 -2.53711,15.70117 0.63545,6.91275 2.58968,15.3378 5.46679,24.72071 5.75423,18.76582 15.20702,41.35613 25.25586,63.14844 18.52932,40.18336 37.33815,74.36608 40.4336,79.96874 -7.54856,-8.66824 -49.84703,-57.65199 -87.44532,-110.89062 -20.63313,-29.21622 -39.29751,-59.07681 -48.853511,-82.84766 -4.778,-11.88542 -7.267789,-22.2485 -6.634766,-30.1875 0.633023,-7.93899 4.273943,-13.43033 11.972657,-15.93945 5.8252,-1.89851 12.50612,-2.61038 19.83008,-2.33789 z m 344.57617,263.41797 -0.79492,0.5957 c 0,0 11.19064,19.2347 19.9375,39.29883 4.37343,10.03206 8.13183,20.27554 9.57617,28.375 0.72217,4.04973 0.85988,7.56223 0.24414,10.20898 -0.61574,2.64676 -1.91857,4.40147 -4.18945,5.19336 -4.63502,1.61632 -14.14245,0.82127 -25.62305,-1.41406 -11.4806,-2.23533 -24.98552,-5.85852 -37.88281,-9.69336 -25.79459,-7.66967 -49.15821,-16.18945 -49.15821,-16.18945 l -0.17382,0.47461 -0.23633,0.43359 c 0,0 34.83742,19.00909 70.07226,33.52344 17.61742,7.25718 35.32775,13.39376 48.89063,15.46875 6.78144,1.03749 12.52878,1.07171 16.75781,-0.33984 4.22903,-1.41156 6.92751,-4.38202 7.31641,-9.04883 v -0.002 c 1.4729,-18.3351 -12.26873,-42.4738 -26.30469,-62.11914 -14.03596,-19.64533 -28.43164,-34.76562 -28.43164,-34.76562 z m 2.21094,3.97461 c 3.61223,3.90506 13.71986,15.01354 25.4082,31.37304 13.98904,19.57967 27.54819,43.69214 26.12109,61.45704 -0.36166,4.33191 -2.67419,6.86098 -6.63672,8.18359 -3.96315,1.32282 -9.58925,1.32383 -16.28906,0.29883 -13.39962,-2.05001 -31.07757,-8.16147 -48.66015,-15.4043 -30.12469,-12.40931 -55.78407,-25.98601 -63.72657,-30.23633 7.2995,2.59488 22.49033,7.91109 42.55469,13.87696 12.91521,3.84016 26.44154,7.46892 37.97656,9.71484 11.53503,2.24592 21.0276,3.16259 26.14258,1.37891 2.60412,-0.90811 4.1673,-3.04637 4.83399,-5.91211 0.66668,-2.86575 0.50322,-6.48606 -0.23243,-10.61133 -1.47128,-8.25055 -5.25546,-18.53168 -9.64453,-28.59961 -7.37614,-16.91988 -15.13105,-30.74269 -17.84765,-35.51953 z"
     id="path8242"
     inkscape:connector-curvature="0" />
  <path
     style="color:#000000;font-style:normal;font-variant:normal;font-weight:normal;font-stretch:normal;font-size:medium;line-height:normal;font-family:sans-serif;font-variant-ligatures:normal;font-variant-position:normal;font-variant-caps:normal;font-variant-numeric:normal;font-variant-alternates:normal;font-feature-settings:normal;text-indent:0;text-align:start;text-decoration:none;text-decoration-line:none;text-decoration-style:solid;text-decoration-color:#000000;letter-spacing:normal;word-spacing:normal;text-transform:none;writing-mode:lr-tb;direction:ltr;text-orientation:mixed;dominant-baseline:auto;baseline-shift:baseline;text-anchor:start;white-space:normal;shape-padding:0;clip-rule:evenodd;display:inline;overflow:visible;visibility:visible;opacity:1;isolation:auto;mix-blend-mode:normal;color-interpolation:sRGB;color-interpolation-filters:linearRGB;solid-color:#000000;solid-opacity:1;vector-effect:none;fill:none;fill-opacity:1;fill-rule:evenodd;stroke:#969696;stroke-width:1.78199995;stroke-linecap:butt;stroke-linejoin:miter;stroke-miterlimit:4;stroke-dasharray:none;stroke-dashoffset:0;stroke-opacity:1;color-rendering:auto;image-rendering:auto;shape-rendering:auto;text-rendering:auto;enable-background:accumulate"
     d="m 377.65234,108.97266 -33.36132,6.62695 5.9414,49.09766 c -13.38235,-13.40701 -31.1208,-28.1208 -52.10937,-30.48438 h -0.002 c -8.45311,-0.93626 -16.34469,1.802 -23.14843,6.90234 -6.80374,5.10035 -12.59619,12.53721 -17.21289,21.22071 -9.23342,17.36699 -13.80682,39.75639 -11.44532,59.00781 v 0.002 c 7.12844,57.63415 39.19322,89.04211 67.85157,116.01172 14.32917,13.48481 27.8021,25.90937 37.04687,39.92578 9.24477,14.01642 14.34992,29.54406 12.09961,49.79688 -1.77033,15.93301 -6.1889,26.38425 -11.92969,32.87109 -5.74078,6.48684 -12.81837,9.17271 -20.57031,9.46289 -15.24929,0.57083 -32.89935,-8.73315 -43.90039,-17.88672 -2.45613,-28.36332 -4.82031,-54.80664 -4.82031,-54.80664 l -0.13868,-1.54101 -21.33398,-3.53516 -1.0293,121.48633 1.11524,0.55859 c 0,0 7.33042,3.66512 14.69922,6.85743 3.68439,1.59615 7.36573,3.07614 10.25976,3.94335 1.44702,0.43361 2.66237,0.73199 3.81641,0.76954 0.57702,0.0188 1.16615,0.0129 1.88867,-0.34961 0.72252,-0.3625 1.43164,-1.44287 1.43164,-2.31055 0,-0.51742 -0.0559,-1.22849 -0.15039,-2.52734 -0.0945,-1.29886 -0.23099,-3.06122 -0.40625,-5.22071 -0.26669,-3.28601 -0.68541,-8.16698 -1.10352,-13.02929 16.79923,11.58912 37.12523,21.83665 55.19727,19.66406 13.34825,-1.60386 26.30798,-7.90598 35.09961,-22.88672 8.79147,-14.98045 13.52157,-38.38836 11.45898,-74.41211 -3e-5,-6.6e-4 4e-5,-0.001 0,-0.002 -2.83749,-50.607 -29.72902,-80.19598 -55.2207,-106.57617 -25.49201,-26.38055 -49.40605,-49.46059 -48.47656,-87.96094 v -0.002 c 0.39608,-16.78393 2.80621,-29.52426 6.58594,-38.49414 3.77972,-8.96988 8.82765,-14.09836 14.61328,-16.21093 5.78562,-2.11257 12.57804,-1.29734 20.13281,2.48828 7.4329,3.72455 15.4916,10.36056 23.5625,19.55859 l 8.16797,66.76953 18.37305,-2.51758 z m -3.90429,4.85351 2.81836,143.9336 -10.82813,1.48242 -7.82812,-63.99219 -0.40039,-0.46289 c -8.44656,-9.71481 -16.9704,-16.81609 -25.1875,-20.93359 -8.21711,-4.11751 -16.24305,-5.24486 -23.29493,-2.66993 -7.05187,2.57493 -12.86058,8.76403 -16.92773,18.41602 -4.06699,9.65161 -6.49437,22.83611 -6.89844,39.95117 -0.97051,40.19965 24.16467,64.52039 49.59766,90.83984 25.43298,26.31946 51.34041,54.7297 54.10351,104.02149 l 1.9961,-0.11133 -1.9961,0.11328 c 2.03713,35.5751 -2.73069,58.21785 -10.91406,72.16211 -8.18337,13.94427 -19.6752,19.44136 -32.12695,20.9375 -17.3002,2.07981 -38.87117,-8.96508 -55.89258,-21.23633 l -3.53906,-2.55273 0.37695,4.34961 c 0.59978,6.89751 1.09975,12.79359 1.44922,17.09961 0.17474,2.15301 0.31321,3.90823 0.40625,5.1875 0.0293,0.40295 0.023,0.38912 0.043,0.70508 -0.54397,-0.0917 -1.01936,-0.14654 -1.89258,-0.40821 -2.58097,-0.7734 -6.20276,-2.2149 -9.81836,-3.78125 -6.67402,-2.89131 -12.38892,-5.75 -13.38281,-6.24414 l 0.96875,-114.27734 13.66211,2.26367 c 0.12741,1.42348 2.33511,26.05558 4.76562,54.15234 l 0.0703,0.82032 0.62696,0.5332 c 11.54609,9.80135 30.03669,19.9298 47.25781,19.28516 8.61056,-0.32232 16.93922,-3.49231 23.41406,-10.8086 6.47484,-7.31628 11.08049,-18.61309 12.91016,-35.08008 2.34969,-21.14718 -3.10727,-37.84532 -12.73438,-52.4414 -9.6271,-14.59609 -23.3362,-27.17153 -37.64453,-40.63672 -28.61632,-26.93007 -59.651,-57.22135 -66.62304,-113.58594 v -0.002 c -2.23796,-18.2482 2.18957,-40.0582 11.00586,-56.64063 4.40829,-8.2915 9.90256,-15.26753 16.08007,-19.89843 6.1764,-4.63007 12.95934,-6.94137 20.30469,-6.12891 21.31374,2.4002 40.27167,19.19136 53.7793,33.29492 l 4.15039,4.33399 -6.89649,-57.01563 z"
     id="path8244"
     inkscape:connector-curvature="0" />
</svg>
