<?xml version="1.0" encoding="UTF-8" standalone="no"?>
<!-- Created with Inkscape (http://www.inkscape.org/) -->

<svg
   xmlns:osb="http://www.openswatchbook.org/uri/2009/osb"
   xmlns:dc="http://purl.org/dc/elements/1.1/"
   xmlns:cc="http://creativecommons.org/ns#"
   xmlns:rdf="http://www.w3.org/1999/02/22-rdf-syntax-ns#"
   xmlns:svg="http://www.w3.org/2000/svg"
   xmlns="http://www.w3.org/2000/svg"
   xmlns:sodipodi="http://sodipodi.sourceforge.net/DTD/sodipodi-0.dtd"
   xmlns:inkscape="http://www.inkscape.org/namespaces/inkscape"
   width="100px"
   height="100px"
   viewBox="0 0 100 100"
   version="1.1"
   id="SVGRoot"
   inkscape:version="0.92.4 (5da689c313, 2019-01-14)"
   sodipodi:docname="ss.svg">
  <defs
     id="defs879">
    <linearGradient
       id="linearGradient1972"
       osb:paint="solid">
      <stop
         style="stop-color:#000000;stop-opacity:1;"
         offset="0"
         id="stop1970" />
    </linearGradient>
  </defs>
  <sodipodi:namedview
     id="base"
     pagecolor="#ffffff"
     bordercolor="#666666"
     borderopacity="1.0"
     inkscape:pageopacity="0.0"
     inkscape:pageshadow="2"
     inkscape:zoom="5.6568543"
     inkscape:cx="48.86407"
     inkscape:cy="41.433295"
     inkscape:document-units="px"
     inkscape:current-layer="layer1"
     showgrid="false"
     inkscape:window-width="1920"
     inkscape:window-height="1046"
     inkscape:window-x="-11"
     inkscape:window-y="-11"
     inkscape:window-maximized="1"
     inkscape:grid-bbox="true" />
  <metadata
     id="metadata882">
    <rdf:RDF>
      <cc:Work
         rdf:about="">
        <dc:format>image/svg+xml</dc:format>
        <dc:type
           rdf:resource="http://purl.org/dc/dcmitype/StillImage" />
        <dc:title></dc:title>
      </cc:Work>
    </rdf:RDF>
  </metadata>
  <g
     inkscape:label="Layer 1"
     inkscape:groupmode="layer"
     id="layer1">
    <g
       aria-label="ֆ"
       transform="matrix(0.99549013,0,0,1.0045303,2,0)"
       style="font-style:normal;font-variant:normal;font-weight:normal;font-stretch:normal;font-size:48.31768799px;line-height:1.25;font-family:'Sitka Banner';-inkscape-font-specification:'Sitka Banner';letter-spacing:0px;word-spacing:0px;fill:none;fill-opacity:1;stroke:#8c8c8c;stroke-width:2;stroke-miterlimit:4;stroke-dasharray:none;stroke-opacity:1"
       id="text1437">
      <path
         d="m 78.456694,57.412764 q 0,5.662229 -2.044694,9.672975 -2.044694,4.010745 -5.544266,6.566613 -3.499572,2.555867 -8.218096,3.735498 -4.679203,1.179631 -10.026864,1.179631 V 94.374537 H 45.230419 V 78.646123 Q 42.831836,78.567481 39.961401,78.174271 37.090965,77.78106 34.259851,77.151924 31.428736,76.483466 28.91219,75.618403 26.434965,74.71402 24.862123,73.652352 v -8.218097 h 0.39321 q 1.88741,1.454879 4.403956,2.673831 2.555868,1.179631 5.269019,2.044693 2.752473,0.865063 5.426303,1.415558 2.713151,0.511173 4.875808,0.629136 V 41.841634 q -4.521919,-0.589815 -7.98217,-1.494199 -3.460251,-0.943705 -5.819513,-2.398583 -2.319941,-1.4942 -3.538893,-3.617536 -1.179631,-2.162656 -1.179631,-5.190376 0,-3.538893 1.690804,-5.858834 1.690805,-2.359263 4.443277,-3.735499 2.791794,-1.415557 6.330687,-1.966052 3.538893,-0.589815 7.23507,-0.589815 h 6.212724 v 19.267307 q 3.381609,0.432532 6.605934,1.14031 3.263646,0.707779 6.134081,1.848089 2.870436,1.14031 5.269019,2.791793 2.398583,1.612163 4.128709,3.814141 1.769446,2.201978 2.713151,5.072413 0.983026,2.870436 0.983026,6.487971 z m -25.83392,14.784709 q 2.123336,0 4.285993,-0.235926 2.201978,-0.235926 4.207351,-0.825742 2.005372,-0.629136 3.735498,-1.651483 1.769446,-1.061668 3.067041,-2.713152 1.297594,-1.651483 2.044693,-3.932103 0.7471,-2.319941 0.7471,-5.426303 0,-3.42093 -1.297594,-5.898155 -1.258273,-2.516546 -3.617535,-4.246672 -2.359262,-1.769447 -5.70155,-2.831115 -3.342288,-1.100989 -7.470997,-1.690804 z M 45.230419,23.242785 q -5.583587,0 -8.37538,1.494199 -2.752473,1.494199 -2.752473,4.285993 0,1.336915 0.471853,2.359262 0.511173,1.022347 1.769446,1.808767 1.297595,0.7471 3.42093,1.336916 2.162657,0.550494 5.465624,0.943704 z"
         style="font-style:normal;font-variant:normal;font-weight:normal;font-stretch:normal;font-size:80.52947998px;font-family:'Comic Sans MS';-inkscape-font-specification:'Comic Sans MS';fill:none;stroke:#8c8c8c;stroke-width:2;stroke-miterlimit:4;stroke-dasharray:none;stroke-opacity:1"
         id="path1457"
         inkscape:connector-curvature="0" />
    </g>
    <path
       style="fill:none;fill-opacity:1;stroke:#8c8c8c;stroke-width:2;stroke-miterlimit:4;stroke-dasharray:none;stroke-dashoffset:0;stroke-opacity:1"
       d="M 95.525482,50 A 45.869232,46.259857 0 0 1 49.65625,96.259857 45.869232,46.259857 0 0 1 3.7870178,50 45.869232,46.259857 0 0 1 49.65625,3.7401428 45.869232,46.259857 0 0 1 95.525482,50 Z"
       id="path1454" />
    <ellipse
       style="fill:none;fill-opacity:1;stroke:#fffff2;stroke-width:2;stroke-miterlimit:4;stroke-dasharray:none;stroke-dashoffset:0;stroke-opacity:1"
       id="path1960"
       cx="49.939415"
       cy="87.006912"
       rx="14.760854"
       ry="6.805903" />
  </g>
</svg>
