<?xml version="1.0" encoding="UTF-8" standalone="no"?>
<!-- Created with Inkscape (http://www.inkscape.org/) -->

<svg
   xmlns:dc="http://purl.org/dc/elements/1.1/"
   xmlns:cc="http://creativecommons.org/ns#"
   xmlns:rdf="http://www.w3.org/1999/02/22-rdf-syntax-ns#"
   xmlns:svg="http://www.w3.org/2000/svg"
   xmlns="http://www.w3.org/2000/svg"
   xmlns:sodipodi="http://sodipodi.sourceforge.net/DTD/sodipodi-0.dtd"
   xmlns:inkscape="http://www.inkscape.org/namespaces/inkscape"
   width="600px"
   height="200px"
   viewBox="0 0 600 200"
   version="1.1"
   id="SVGRoot"
   inkscape:version="0.92.4 (5da689c313, 2019-01-14)"
   sodipodi:docname="stack_portal.svg">
  <defs
     id="defs819" />
  <sodipodi:namedview
     id="base"
     pagecolor="#ffffff"
     bordercolor="#666666"
     borderopacity="1.0"
     inkscape:pageopacity="0.0"
     inkscape:pageshadow="2"
     inkscape:zoom="1.979899"
     inkscape:cx="316.15397"
     inkscape:cy="70.729101"
     inkscape:document-units="px"
     inkscape:current-layer="text1377"
     showgrid="false"
     inkscape:window-width="1920"
     inkscape:window-height="1046"
     inkscape:window-x="-11"
     inkscape:window-y="-11"
     inkscape:window-maximized="1" />
  <metadata
     id="metadata822">
    <rdf:RDF>
      <cc:Work
         rdf:about="">
        <dc:format>image/svg+xml</dc:format>
        <dc:type
           rdf:resource="http://purl.org/dc/dcmitype/StillImage" />
        <dc:title></dc:title>
      </cc:Work>
    </rdf:RDF>
  </metadata>
  <g
     inkscape:label="Layer 1"
     inkscape:groupmode="layer"
     id="layer1">
    <g
       aria-label="Stack Portal"
       style="font-style:normal;font-variant:normal;font-weight:normal;font-stretch:normal;font-size:40px;line-height:1.25;font-family:'Sitka Banner';-inkscape-font-specification:'Sitka Banner';letter-spacing:0px;word-spacing:0px;fill:none;fill-opacity:1;stroke:#969696;stroke-width:1.51181102;stroke-miterlimit:4;stroke-dasharray:1.51181102, 1.51181102;stroke-dashoffset:0;stroke-opacity:1"
       id="text1377">
      <path
         d="m 45.087024,45.451993 q 7.174479,0 12.369792,6.061198 2.597656,3.772786 3.896484,10.328776 l 1.298828,9.710286 q 0,2.597656 -4.267578,3.710937 -2.721354,1.669922 -6.432291,1.669922 -2.041016,0 -3.772787,-1.17513 -0.865885,0 -1.669922,-9.277344 -0.494791,-1.236979 -1.422526,-5.009765 -0.618489,-1.669922 -2.845052,-1.669922 -1.546224,1.484375 -1.546224,3.587239 v 1.917318 q 0,3.277995 3.896485,10.761719 4.267578,9.648437 6.679687,14.658202 11.875,22.327471 11.875,25.419921 0.618489,1.66992 1.546224,10.82357 -0.247396,5.19531 -1.546224,11.07096 -1.298828,5.00977 -3.216146,8.16406 -3.339844,3.33985 -5.31901,3.71094 -5.442709,2.47396 -8.34961,2.47396 0,0.1237 -1.422526,0.2474 -12.369791,0 -17.008463,-14.72006 -1.793619,-8.16406 -1.793619,-11.68945 0,-2.35026 3.587239,-2.96875 1.298828,-1.17513 3.58724,-1.17513 6.370442,0 7.360025,1.66992 0.371094,1.11328 0.927735,5.69011 2.597656,6.92708 5.133463,8.7207 1.79362,-2.72135 1.79362,-9.27734 v -0.86589 q -0.865885,-7.36003 -3.216146,-12.49349 -2.35026,-6.61784 -8.90625,-21.152342 Q 33.45942,89.364752 29.872181,81.20069 25.233509,72.356289 25.233509,66.233242 V 65.18181 q 0,-8.164062 4.514974,-14.287109 2.288411,-2.226562 9.648437,-4.638672 3.772787,-0.804036 5.690104,-0.804036 z M 29.624785,64.934414 q 0,6.061198 5.813802,16.761068 2.412109,6.184895 5.133463,10.452474 0.371094,1.236979 7.360026,17.008464 4.638672,11.7513 4.638672,15.77148 0.371094,0.92774 0.371094,1.91732 v 0.37109 q 0,10.94727 -4.638672,13.05013 -0.680338,0.1237 -1.17513,0.1237 -2.783203,-0.86588 -5.257161,-5.5664 -2.597657,-5.38086 -2.597657,-9.40105 0,-1.42252 -3.092448,-1.42252 -0.989583,-0.1237 -3.092447,-0.1237 h -0.247396 q -2.473958,0 -2.473958,1.42253 0.309244,3.09244 0.55664,4.39127 1.17513,7.05078 2.721354,10.45248 4.76237,9.52474 13.359375,9.52474 5.9375,0 10.576172,-3.46355 2.96875,-3.09244 4.514973,-11.875 0.556641,-2.10286 0.804037,-7.60742 -0.804037,-8.34961 -1.546224,-11.07096 -1.484375,-4.76237 -7.854818,-17.070313 -5.87565,-10.885416 -8.411458,-17.379557 -0.865885,-1.422526 -3.339843,-7.236328 -2.845052,-4.886067 -2.845052,-9.648437 0,-5.257162 4.020182,-7.236328 0.185547,-0.123698 0.618489,-0.123698 h 2.597657 q 2.845052,0 3.834635,4.76237 1.669922,6.123046 1.669922,10.823567 0.680338,1.422526 2.721354,1.422526 h 0.55664 Q 60.796659,73.46957 60.796659,71.675951 60.425566,65.862149 58.755644,58.254727 56.467232,51.451342 52.323352,49.224779 48.859811,47.307462 45.33442,47.307462 h -0.371094 q -8.597005,0 -12.369791,5.257161 -2.96875,5.628255 -2.96875,12.369791 z M 49.601998,50.523607 q 2.721354,0.247396 2.721354,1.79362 v 1.051432 q 0,2.96875 -2.473958,2.96875 h -0.61849 q -2.102864,0 -2.35026,-2.473958 0,-2.783203 1.979167,-3.216146 0.185547,-0.123698 0.742187,-0.123698 z m -11.070963,0.742188 q 2.721354,0.247396 2.721354,1.79362 v 1.051432 q 0,2.96875 -2.473958,2.96875 h -0.680339 q -2.041015,0 -2.288411,-2.473958 0,-2.783204 1.917317,-3.216146 0.185547,-0.123698 0.804037,-0.123698 z M 55.4158,61.347175 q 2.721354,0.247396 2.721354,1.79362 v 1.051432 q 0,2.96875 -2.473958,2.96875 h -0.61849 q -2.102864,0 -2.35026,-2.473958 0,-2.783204 1.917318,-3.216146 0.247396,-0.123698 0.804036,-0.123698 z m -21.523437,0.247396 q 2.659505,0.247396 2.659505,1.793619 v 1.051433 q 0,2.96875 -2.412109,2.96875 H 33.45942 q -2.041015,0 -2.288411,-2.473959 0,-2.783203 1.917318,-3.216145 0.185546,-0.123698 0.804036,-0.123698 z m 3.463542,11.194661 q 2.721354,0.309245 2.721354,1.855469 v 0.989583 q 0,2.96875 -2.473959,2.96875 h -0.618489 q -2.102865,0 -2.35026,-2.412109 0,-2.783203 1.917317,-3.277995 0.247396,-0.123698 0.804037,-0.123698 z m 5.133463,11.751302 q 2.721354,0.247396 2.721354,1.79362 v 1.051432 q 0,2.96875 -2.412109,2.96875 h -0.680339 q -2.102864,0 -2.288411,-2.473959 0,-2.783203 1.917318,-3.216145 0.185546,-0.123698 0.742187,-0.123698 z m 5.566406,11.627604 q 2.721354,0.247396 2.721354,1.793619 v 1.051433 q 0,2.96875 -2.473958,2.96875 h -0.61849 q -2.102864,0 -2.35026,-2.473959 0,-2.783203 1.979167,-3.216145 0.185547,-0.123698 0.742187,-0.123698 z m 4.638672,9.648442 q 2.721354,0.24739 2.721354,1.79361 v 1.05144 q 0,2.96875 -2.473958,2.96875 h -0.61849 q -2.102864,0 -2.35026,-2.47396 0,-2.7832 1.979167,-3.21615 0.185546,-0.12369 0.742187,-0.12369 z m 4.391276,11.6276 q 2.721354,0.24739 2.721354,1.79362 v 1.05143 q 0,2.96875 -2.473958,2.96875 h -0.61849 q -2.102864,0 -2.35026,-2.47396 0,-2.7832 1.917318,-3.21614 0.247395,-0.1237 0.804036,-0.1237 z m -21.523437,9.89583 q 2.721354,0.30925 2.721354,1.85547 v 0.98958 q 0,2.96875 -2.473958,2.96875 h -0.61849 q -2.102864,0 -2.35026,-2.41211 0,-2.7832 1.917317,-3.27799 0.185547,-0.1237 0.804037,-0.1237 z m 22.141927,2.59766 q 2.721354,0.24739 2.721354,1.79362 v 1.05143 q 0,2.96875 -2.41211,2.96875 h -0.680338 q -2.102865,0 -2.288412,-2.47396 0,-2.7832 1.917318,-3.21614 0.185547,-0.1237 0.742188,-0.1237 z m -17.750651,7.97851 q 2.659505,0.30925 2.659505,1.85547 v 0.98959 q 0,2.96875 -2.412109,2.96875 h -0.680339 q -2.041015,0 -2.288411,-2.41211 0,-2.78321 1.917317,-3.278 0.185547,-0.1237 0.804037,-0.1237 z m 11.318359,2.72136 q 2.721354,0.24739 2.721354,1.79362 v 1.05143 q 0,2.96875 -2.473958,2.96875 h -0.61849 q -2.102864,0 -2.35026,-2.47396 0,-2.7832 1.979167,-3.21614 0.185546,-0.1237 0.742187,-0.1237 z"
         style="font-style:normal;font-variant:normal;font-weight:normal;font-stretch:normal;font-size:126.66666412px;font-family:'Cupcake Movie';-inkscape-font-specification:'Cupcake Movie';fill:none;stroke:#969696;stroke-width:1.51181102;stroke-miterlimit:4;stroke-dasharray:1.51181102, 1.51181102;stroke-dashoffset:0;stroke-opacity:1"
         id="path1379"
         inkscape:connector-curvature="0" />
      <path
         d="m 103.14236,46.008634 h 2.84505 q 2.72136,0 3.52539,1.917317 0.61849,2.041016 0.61849,5.195313 0,3.834635 -1.54622,5.071614 -0.86589,0.371094 -1.97917,0.371094 h -0.1237 q 0,0.865885 -2.04101,1.17513 -1.17513,0 -6.246747,0.123698 l -0.123698,0.309245 v 3.463541 q 0,12.060547 -0.927734,63.024084 v 8.8444 q 0,0.74219 -0.371094,6.92709 0.123698,1.29883 0.247396,1.54622 -0.309245,5.8138 -1.79362,5.8138 l -4.329427,1.85547 q -1.669921,0.2474 -4.14388,0.3711 -5.566406,0 -5.566406,-3.278 v -0.98958 q 0,-3.21615 0.371094,-4.57682 l -0.123698,-1.54623 v -3.27799 q 0.247396,-7.79297 0.247396,-8.65886 v -15.21484 q 0,-14.41081 0.494792,-18.863933 -0.123698,-2.164713 -0.123698,-3.339844 V 81.076992 q 0,-4.020182 0.123698,-10.947265 0.309244,-0.804037 0.309244,-0.989584 -0.309244,-3.401692 -0.309244,-8.102213 v -0.865885 q -8.164063,0.123698 -11.689453,0.123698 -2.535808,0 -2.96875,-5.071615 v -3.401693 q 0,-4.391275 3.52539,-4.391275 0,0.123697 0.123698,0.123697 0,-0.680338 2.041016,-1.298828 0.680338,0.123698 0.804036,0.123698 0.865886,0 2.597656,-0.123698 0.865886,0 1.546224,0.123698 16.142578,-0.371093 24.986979,-0.371093 z m -24.739583,2.164713 q -1.113281,-0.123698 -1.917318,-0.123698 -0.247395,0 -2.35026,0.123698 -0.680338,-0.123698 -1.051432,-0.123698 -1.113281,0.309245 -1.17513,3.649089 0.185547,5.690104 1.298828,5.690104 10.143229,-0.247396 13.297526,-0.247396 l 0.123697,0.247396 v 1.298828 q 0,3.339843 0.247396,9.524739 0,0.247396 -0.247396,1.546224 -0.123697,12.617187 -0.123697,17.255859 0,2.102865 0.123697,8.473307 -0.55664,3.772787 -0.55664,32.779951 v 1.11328 q -0.247396,8.04036 -0.247396,8.597 0,1.73177 0.123698,4.45313 -0.247396,1.54622 -0.371094,5.31901 0,1.29883 3.896484,1.29883 5.442709,0 5.442709,-1.73177 0,-0.68034 0.309244,-3.46355 -0.185546,-1.36067 -0.309244,-1.60807 0.432942,-4.32943 0.432942,-6.61784 0,-11.6276 0.865886,-61.477861 0,-6.865234 0.123698,-17.008463 0.618489,-0.247396 2.102864,-0.247396 h 8.473311 q 1.42252,0 1.42252,-3.092448 v -2.102864 q 0,-3.896485 -1.54622,-3.896485 h -6.12305 q -11.689451,0 -22.265623,0.371094 z m 21.33789,0.804036 q 2.721353,0.309245 2.721353,2.041016 v 0.556641 q -0.24739,3.216145 -1.42252,3.216145 -0.92774,0.185547 -1.546228,0.185547 -2.597657,-0.309244 -2.597657,-2.659505 0,-2.721354 2.041016,-3.216146 z m -22.636718,0.247396 q 2.783203,0.309245 2.783203,2.102865 v 0.494791 q -0.247396,3.277995 -1.484375,3.277995 -0.865885,0.123698 -1.546224,0.123698 -2.597656,-0.309245 -2.597656,-2.597656 0,-2.721354 2.102865,-3.277995 z m 11.442057,0 q 2.721354,0.309245 2.721354,2.102865 v 0.494791 q -0.185547,3.277995 -1.422526,3.277995 -0.865885,0.123698 -1.546224,0.123698 -2.597656,-0.309245 -2.597656,-2.597656 0,-2.721354 2.102865,-3.277995 z m 3.154297,12.988281 q 2.721354,0.309245 2.721354,2.102865 v 0.494791 q -0.247396,3.277995 -1.422526,3.277995 -0.927734,0.123698 -1.546224,0.123698 -2.597656,-0.309245 -2.597656,-2.597656 0,-2.721354 2.041015,-3.277995 z m 0.494792,13.792318 q 2.721354,0.309244 2.721354,2.102864 v 0.494792 q -0.247396,3.216146 -1.422526,3.216146 -0.927735,0.185547 -1.546224,0.185547 -2.597656,-0.309245 -2.597656,-2.597657 0,-2.783203 2.102864,-3.277994 z M 91.452907,89.48845 q 2.721354,0.309245 2.721354,2.102865 v 0.494792 q -0.247396,3.277994 -1.422526,3.277994 -0.927734,0.123698 -1.608073,0.123698 -2.597656,-0.309245 -2.597656,-2.597656 0,-2.721354 2.102865,-3.277995 z m 0,14.34896 q 2.721354,0.24739 2.721354,2.04101 v 0.55664 q -0.247396,3.21615 -1.422526,3.21615 -0.927734,0.1237 -1.608073,0.1237 -2.597656,-0.30925 -2.597656,-2.59766 0,-2.72135 2.102865,-3.21614 z m -0.309245,13.23568 q 2.783203,0.24739 2.783203,2.04101 v 0.55664 q -0.247395,3.21615 -1.484375,3.21615 -0.865885,0.1237 -1.546224,0.1237 -2.597656,-0.2474 -2.597656,-2.59766 0,-2.72136 2.102865,-3.21615 z m 0,11.44205 q 2.783203,0.2474 2.783203,2.04102 v 0.55664 q -0.247395,3.21614 -1.484375,3.21614 -0.865885,0.1237 -1.546224,0.1237 -2.597656,-0.30924 -2.597656,-2.59765 0,-2.72136 2.102865,-3.21615 z m -0.494791,11.93685 q 2.721354,0.30925 2.721354,2.10287 v 0.49479 q -0.247396,3.27799 -1.422526,3.27799 -0.927735,0.1237 -1.546224,0.1237 -2.597656,-0.30924 -2.597656,-2.59766 0,-2.72135 2.041015,-3.27799 z"
         style="font-style:normal;font-variant:normal;font-weight:normal;font-stretch:normal;font-size:126.66666412px;font-family:'Cupcake Movie';-inkscape-font-specification:'Cupcake Movie';fill:none;stroke:#969696;stroke-width:1.51181102;stroke-miterlimit:4;stroke-dasharray:1.51181102, 1.51181102;stroke-dashoffset:0;stroke-opacity:1"
         id="path1381"
         inkscape:connector-curvature="0" />
      <path
         d="m 133.90082,45.63754 q 5.13347,0 12.1224,2.721354 0.80404,0 1.91732,7.050781 0,0.556641 0.74218,4.391276 0.3711,2.845052 1.05144,12.740885 0.24739,1.236979 1.17513,17.070312 1.23698,14.225262 3.21614,28.821612 l 1.79362,17.99805 q 0.1237,0.24739 0.86589,10.94726 0,2.22657 -4.20573,3.09245 -1.66992,0.61849 -6.43229,1.54623 h -0.55664 q -3.278,0 -4.20573,-2.28842 -1.17513,-2.6595 -1.66992,-11.07096 -1.42253,-15.0293 -1.42253,-15.95703 h -0.1237 q -3.1543,-0.37109 -12.36979,-0.55664 0,3.0306 -1.54622,11.07096 -1.05144,10.14323 -2.04102,13.79232 -0.74219,2.72135 -2.72135,2.72135 -3.71094,1.11329 -4.26758,1.11329 h -3.95833 q -4.02019,0 -4.63868,-2.53581 0,-0.30925 -0.12369,-0.55664 1.54622,-11.25651 3.83463,-30.36784 0.68034,-2.9069 2.59766,-15.0293 2.47396,-16.204423 6.30859,-33.831376 1.66992,-9.710286 3.71094,-14.781901 1.36068,-6.184896 3.09245,-6.184896 0.74218,-0.618489 6.67968,-1.917317 z M 111.3878,147.00798 q 0,1.29883 5.25716,1.29883 h 0.2474 q 3.52539,0 3.52539,-1.29883 1.11328,-3.64909 2.28841,-15.58594 0.86589,-3.0306 1.66992,-11.31836 0.18555,0 0.3711,-0.37109 5.19531,-0.1237 7.73112,-0.1237 h 1.54622 q 8.90625,0.18555 8.90625,0.98959 1.54623,15.46224 2.28841,24.73958 0.98959,3.83463 1.91732,3.83463 l 1.91732,0.2474 q 4.94791,-1.11328 5.07161,-1.11328 0.98959,-0.61849 0.98959,-1.17513 l -1.91732,-20.5957 q -1.29883,-12.55534 -3.21615,-27.646488 -1.17513,-12.679036 -1.91732,-26.780599 -0.24739,-1.17513 -1.05143,-12.43164 -0.74218,-2.721354 -1.17513,-6.865234 -0.68034,-3.339844 -1.48437,-3.339844 -6.37045,-2.164713 -10.69987,-2.164713 -4.63867,0 -5.13347,3.092447 -4.14388,13.235677 -4.14388,16.080729 -3.95833,17.8125 -6.06119,31.481119 -0.61849,4.576823 -1.91732,11.503903 -1.42253,8.53516 -2.53581,17.44141 0,1.97917 -2.47396,19.85351 z m 21.58529,-96.484373 q 2.72135,0.247396 2.72135,1.79362 v 1.051432 q 0,2.96875 -2.41211,2.96875 H 132.602 q -2.04102,0 -2.28842,-2.473958 0,-2.783203 1.91732,-3.216146 0.18555,-0.123698 0.74219,-0.123698 z m 7.73112,5.133464 h 1.17513 q 2.59766,0.927734 2.59766,1.917317 0,2.288412 -1.97917,4.020183 h -0.49479 q -2.96875,0 -3.33985,-2.473959 v -0.247395 q 0,-1.669922 2.04102,-3.216146 z m -4.20573,2.041015 q 0.49479,0 1.11328,6.432292 3.64909,26.285807 3.64909,35.934242 0.49479,5.38086 0.61849,9.40104 -0.1237,0 -0.1237,0.1237 -2.41211,0.1237 -3.46354,0.1237 h -1.29883 q -3.33984,0 -8.22591,0.1237 -2.35026,-0.18555 -2.35026,-0.68034 0,-2.28841 1.66992,-10.76172 l -0.1237,-1.17513 q 0.68034,-3.649088 2.10287,-14.039713 3.09245,-15.771484 4.45312,-20.843099 0.30925,-0.309245 1.85547,-4.638672 z m -9.15365,6.865235 h 0.92774 q 1.79362,0 3.46354,2.041015 -0.30924,3.710938 -2.72135,3.710938 -1.60808,0 -3.33985,-2.164714 v -0.247396 q 0,-1.855468 1.66992,-3.339843 z m 15.95704,3.958333 q 1.36067,0 2.72135,3.587239 v 0.432943 q -1.54622,2.164714 -3.09245,2.164714 h -0.1237 q -2.16471,0 -2.72135,-3.834636 v -0.309245 q 0.55664,-1.236979 3.09245,-2.041015 z m -9.52474,4.76237 q -2.47396,11.689452 -3.58724,21.461588 -0.43295,2.535807 -0.55664,2.597656 l 0.12369,0.247396 V 98.3947 q -0.74218,4.14388 -1.48437,9.64844 h 0.1237 q 0.68034,0 1.11328,0.1237 2.41211,-0.1237 4.26758,-0.1237 h 3.09244 v -1.29883 l -1.05143,-17.626953 q -1.54622,-11.31836 -1.91732,-15.833333 z m -6.80339,5.133463 q 1.79362,1.051432 1.79362,4.020182 v 0.123698 q 0,1.298828 -3.09245,1.917318 -2.10286,0 -2.47396,-3.58724 0,-1.608073 1.85547,-2.226562 1.79362,-0.123698 1.91732,-0.247396 z m 18.74023,4.267578 q 1.54623,1.051432 1.54623,4.082031 0,1.17513 -3.09245,1.855469 -2.41211,-0.494792 -2.41211,-3.339844 0,-2.597656 3.58724,-2.597656 z m -22.38932,11.070963 q 2.72136,0.247396 2.72136,1.79362 v 1.051432 q 0,2.906901 -2.41211,2.906901 h -0.68034 q -2.04102,0 -2.28841,-2.412109 0,-2.783203 1.91731,-3.216146 0.18555,-0.123698 0.74219,-0.123698 z m 22.94597,3.339844 h 0.61848 q 1.48438,0 2.16472,3.339848 v 0.12369 q -1.79362,2.28842 -3.71094,2.28842 -1.36068,0 -2.28841,-2.65951 v -0.680339 q 0.86588,-2.412109 3.21615,-2.412109 z m -25.48178,11.565758 q 1.60808,0 3.33985,1.79362 v 0.68034 q 0,1.79362 -2.04102,3.58723 h -0.43294 q -3.33984,-0.37109 -3.33984,-2.47395 v -0.3711 q 0,-1.60807 2.35026,-3.21614 z m 25.72917,2.59765 q 3.33984,0.92774 3.33984,3.33985 v 0.24739 q -0.37109,1.05144 -1.79362,2.16472 l -0.55664,0.37109 h -0.12369 q -1.85547,0 -3.58724,-2.7832 v -0.43295 q 0,-1.85546 2.72135,-2.9069 z m -13.11198,0.49479 q 2.65951,0.2474 2.65951,1.79362 v 1.05144 q 0,2.96875 -2.41211,2.96875 h -0.68034 q -2.04102,0 -2.28841,-2.47396 0,-2.7832 1.91732,-3.21615 0.18554,-0.1237 0.80403,-0.1237 z m -13.54492,11.81316 q 1.79362,1.23697 1.79362,3.77278 v 0.3711 q 0,1.36067 -3.21615,1.91731 -1.85546,0 -2.28841,-3.46354 0,-2.59765 3.71094,-2.59765 z m 30.24414,0.68033 q 1.42253,1.23698 1.42253,4.08204 -0.86589,1.66992 -2.59766,1.66992 h -0.86589 q -1.91731,-0.2474 -2.04101,-3.33985 0,-2.41211 3.58724,-2.41211 z m -0.49479,13.23568 q 2.6595,0.2474 2.6595,1.79362 v 1.05143 q 0,2.96875 -2.41211,2.96875 h -0.61848 q -2.10287,0 -2.35027,-2.47396 0,-2.7832 1.91732,-3.21614 0.18555,-0.1237 0.80404,-0.1237 z m -32.40885,0.2474 q 2.6595,0.24739 2.6595,1.79362 v 1.05143 q 0,2.96875 -2.41211,2.96875 h -0.68034 q -2.04101,0 -2.28841,-2.47396 0,-2.7832 1.91732,-3.21615 0.18555,-0.12369 0.80404,-0.12369 z"
         style="font-style:normal;font-variant:normal;font-weight:normal;font-stretch:normal;font-size:126.66666412px;font-family:'Cupcake Movie';-inkscape-font-specification:'Cupcake Movie';fill:none;stroke:#969696;stroke-width:1.51181102;stroke-miterlimit:4;stroke-dasharray:1.51181102, 1.51181102;stroke-dashoffset:0;stroke-opacity:1"
         id="path1383"
         inkscape:connector-curvature="0" />
      <path
         d="m 183.83377,45.63754 h 1.42253 q 5.07161,0.309245 9.15364,2.721354 4.26758,2.721354 6.0612,9.029948 1.05143,5.31901 1.05143,17.070312 0,1.484375 -1.79362,2.845052 -0.74219,0.742187 -7.42187,2.473958 h -0.4948 q -5.8138,-0.804036 -5.8138,-3.896484 l -0.1237,-0.804037 q 0,-0.680338 0.1237,-1.113281 -0.1237,-10.576172 -0.92773,-11.25651 -0.49479,-1.298828 -2.16472,-2.845052 -1.05143,0 -2.72135,6.308594 -0.2474,2.473958 -0.2474,3.216145 0,5.751953 -0.12369,13.606771 0.55664,47.80924 1.17513,47.80924 0.68034,4.26758 2.5358,6.61784 l 1.42253,0.74219 q 0.68034,0 1.54622,-5.8138 0.3711,-12.80274 1.05144,-13.29753 0,-1.36068 3.64908,-2.22656 0.3711,0 2.04102,-0.61849 2.28841,-0.37109 2.96875,-0.37109 4.94792,0 5.6901,1.54622 0.2474,0 0.4948,7.48372 v 2.59766 q 0,11.07096 -5.25717,20.16276 -2.10286,2.53581 -8.04036,3.77279 -1.42253,0.61849 -3.33984,0.61849 -9.2155,0 -12.67904,-3.09245 -3.64909,-2.65951 -4.88607,-5.9375 -3.27799,-6.1849 -3.27799,-19.66797 -0.2474,-3.09245 -0.2474,-10.32878 0,-2.47395 0.1237,-4.39127 -0.37109,-21.523439 -0.37109,-25.110678 0,-21.276042 2.72135,-26.71875 2.59766,-6.308594 6.43229,-8.164062 4.08203,-1.79362 5.56641,-1.79362 0,-0.432943 4.70052,-1.17513 z m -14.53451,38.779296 q 0,1.051432 0.30925,20.162764 0,1.66992 0.1237,3.58724 -0.18555,1.79362 -0.2474,2.10286 0.1237,1.73177 0.1237,2.59766 0,21.58528 2.16471,25.72916 1.73177,5.56641 5.56641,8.10222 2.53581,1.91731 7.23633,2.59765 h 1.29882 q 1.23698,0 2.96875,0.1237 2.22657,0 5.56641,-1.66992 2.28841,-1.54623 4.14388,-7.48373 2.16471,-5.19531 2.16471,-15.27669 v -0.61849 q -0.24739,-3.15429 -0.24739,-3.52539 v -2.41211 q 0,-0.80403 -4.39128,-0.80403 -4.14388,0 -4.14388,2.35026 -0.24739,1.36067 -0.24739,2.96875 v 1.66992 q 0,13.79232 -3.64909,14.72005 -0.68034,0.55664 -1.91732,0.55664 h -1.42253 q -2.59765,0 -4.76237,-5.6901 -1.17513,-4.76237 -1.17513,-10.88542 -0.12369,0 -0.12369,-0.61849 -0.68034,-33.027343 -0.68034,-38.779296 0,-19.729817 1.17513,-20.7194 1.48437,-4.267578 2.72135,-4.886068 1.91732,-1.298828 2.84505,-1.298828 h 1.05144 q 1.79362,0 4.02018,4.020182 0.92773,0.556641 1.11328,11.875 -0.1237,0.432943 -0.1237,1.422526 0,1.979166 2.72136,2.473958 0,0.247396 1.29882,0.247396 h 0.3711 q 4.57682,-0.804036 4.57682,-2.597656 0,-0.247396 0.1237,-0.247396 0,-16.389974 -2.47396,-20.039062 -0.98958,-2.288412 -4.39128,-4.638672 -4.20572,-2.226562 -9.02994,-2.226562 h -0.30925 q -3.52539,0.618489 -6.80338,2.35026 -4.02019,2.96875 -5.69011,9.029948 -1.85547,3.958333 -1.85547,25.358072 z m 17.07032,-35.439453 h 0.24739 q 1.48438,0 3.1543,3.092448 v 0.432943 q -1.05143,2.721354 -3.1543,2.721354 -2.04101,0 -2.96875,-3.772786 0.61849,-1.484375 2.72136,-2.473959 z m -9.95769,4.267578 h 0.1237 q 3.40169,0.371094 3.40169,2.473959 v 0.371094 q 0,1.669921 -2.35026,3.216145 h -0.12369 q -1.60808,0 -3.33985,-1.793619 v -0.61849 q 0.92774,-3.649089 2.28841,-3.649089 z m 17.75065,3.401693 h 0.2474 q 0.1237,0 0.1237,0.123698 l 0.24739,-0.123698 q 2.35026,0 2.35026,2.164714 0.1237,0 0.1237,0.804036 v 0.865885 q 0,1.979167 -2.72135,1.979167 h -0.61849 q -1.36068,0 -1.97917,-2.102864 v -1.422526 q 0,-1.79362 1.66992,-2.164714 0.2474,-0.123698 0.55664,-0.123698 z m -20.28645,7.607422 q 2.6595,0.247396 2.6595,1.79362 v 1.051432 q 0,2.96875 -2.41211,2.96875 h -0.68034 q -2.10286,0 -2.28841,-2.473958 0,-2.783204 1.91732,-3.216146 0.18555,-0.123698 0.80404,-0.123698 z m 21.27604,4.020182 q 2.72135,0.247396 2.72135,1.79362 v 1.051432 q 0,2.96875 -2.41211,2.96875 h -0.68034 q -2.10286,0 -2.28841,-2.473958 0,-2.783203 1.91732,-3.216146 0.18555,-0.123698 0.74219,-0.123698 z m -21.15235,8.102213 q 0.98959,0 2.72136,2.473959 l 0.1237,0.247396 q 0,1.669921 -3.1543,3.52539 h -0.1237 q -2.96875,-0.927734 -2.96875,-2.845052 0,-2.35026 3.40169,-3.401693 z m -0.43294,12.307943 q 2.72136,0.247396 2.72136,1.79362 v 1.051432 q 0,2.96875 -2.41211,2.96875 h -0.68034 q -2.10287,0 -2.28841,-2.473958 0,-2.783203 1.91731,-3.216146 0.18555,-0.123698 0.74219,-0.123698 z m 0,12.802736 q 2.72136,0.24739 2.72136,1.79362 v 1.05143 q 0,2.96875 -2.41211,2.96875 h -0.68034 q -2.10287,0 -2.28841,-2.47396 0,-2.7832 1.91731,-3.21614 0.18555,-0.1237 0.74219,-0.1237 z m 0.55664,12.24609 q 1.29883,0 2.96875,2.35026 v 0.49479 q 0,1.42253 -2.72135,3.4017 h -0.2474 q -3.09245,-0.92774 -3.09245,-2.84506 0,-2.16471 3.09245,-3.40169 z m 21.95638,7.54557 q 2.72136,0.2474 2.72136,1.79362 v 1.05144 q 0,2.96875 -2.47396,2.96875 h -0.61849 q -2.10287,0 -2.35026,-2.47396 0,-2.78321 1.97917,-3.21615 0.18554,-0.1237 0.74218,-0.1237 z m -21.33789,6.3086 q 2.47396,0.18554 2.47396,2.22656 0.2474,0 0.37109,1.66992 -1.66992,1.79362 -4.26757,1.79362 h -0.1237 q -1.66992,-1.36068 -1.66992,-2.84505 v -0.49479 q 0,-1.73177 3.21614,-2.35026 z m 20.9668,4.88607 q 2.59766,0 2.59766,3.15429 l -0.1237,0.2474 q 0.1237,0.18555 0.1237,0.49479 -1.05144,1.54622 -3.64909,1.54622 h -0.92774 q -1.42252,-1.29882 -1.42252,-2.72135 v -0.37109 q 0.37109,-2.35026 3.0306,-2.35026 z m -17.31771,5.8138 q 2.72135,0.30924 2.72135,1.85547 v 0.98958 q 0,3.0306 -2.47395,3.0306 h -0.68034 q -2.04102,0 -2.28841,-2.47396 0,-2.7832 1.91731,-3.21615 0.18555,-0.18554 0.80404,-0.18554 z m 10.57617,2.47396 q 2.72136,0.24739 2.72136,1.79362 v 1.05143 q 0,2.96875 -2.47396,2.96875 h -0.61849 q -2.10287,0 -2.35026,-2.41211 0,-2.84505 1.97917,-3.278 0.18554,-0.12369 0.74218,-0.12369 z"
         style="font-style:normal;font-variant:normal;font-weight:normal;font-stretch:normal;font-size:126.66666412px;font-family:'Cupcake Movie';-inkscape-font-specification:'Cupcake Movie';fill:none;stroke:#969696;stroke-width:1.51181102;stroke-miterlimit:4;stroke-dasharray:1.51181102, 1.51181102;stroke-dashoffset:0;stroke-opacity:1"
         id="path1385"
         inkscape:connector-curvature="0" />
      <path
         d="m 244.67296,45.946785 h 3.278 q 5.25716,0.618489 5.25716,2.659505 0.1237,0.185547 0.1237,0.494791 -0.3711,1.855469 -5.87566,15.400391 -1.05143,2.906901 -2.28841,7.483723 -0.68034,1.360678 -1.91731,5.751954 l -6.0612,19.358723 q -0.18555,0.494792 -0.43294,0.494792 4.20572,13.916016 5.13346,17.379556 1.60807,4.20573 2.10286,7.05078 3.1543,10.20508 5.8138,19.85352 1.85547,4.70052 2.10287,6.06119 0,2.35027 -3.278,2.90691 -0.43294,0 -2.9069,0.92773 -2.04101,0.2474 -3.52539,0.2474 -7.79297,-0.55664 -7.79297,-1.85547 -4.08203,-14.84375 -4.08203,-16.38998 -0.37109,-0.98958 -0.74218,-2.6595 h -0.18555 v 0.68034 q 0,3.58724 -0.1237,4.32942 0.1237,2.35026 0.1237,5.13347 v 3.40169 q 0,3.33984 -2.10287,4.32943 -2.22656,0.55664 -5.07161,1.42252 -2.53581,0.55664 -3.95833,0.55664 h -1.60808 q -3.64908,0 -4.20573,-3.0306 v -0.37109 q 0,-0.30924 0.1237,-0.55664 -0.24739,-0.55664 -0.24739,-2.10286 v -6.67969 q 0,-1.11328 -0.1237,-2.35026 0.24739,-1.73177 0.24739,-3.71094 0,-1.42253 -0.12369,-1.97917 0.12369,-2.10286 0.12369,-4.20572 v -5.00977 q 0,-2.72135 0.1237,-4.94792 -0.1237,-1.23698 -0.1237,-3.46354 0,-3.27799 0.30925,-8.10221 l -0.30925,-4.514976 q 0.1237,-0.618489 0.30925,-0.618489 L 212.57335,98.3947 V 78.417487 q 0,-0.927734 -0.1237,-1.608073 0.1237,-0.680338 0.1237,-1.546224 V 58.563972 q 0,-1.79362 0.18555,-4.700521 -0.18555,-0.247396 -0.18555,-0.804036 0.18555,-0.556641 0.18555,-0.927735 -0.30925,-0.989583 -0.30925,-1.051432 0,-3.092448 3.83464,-3.525391 0.43294,0 1.73177,-0.55664 1.05143,-0.371094 2.22656,-0.371094 7.36003,0.556641 7.36003,1.546224 0.80404,0 1.17513,3.154297 0,0.123698 -0.1237,0.432943 0.1237,14.163411 0.2474,19.667968 h 0.1237 q 1.54622,-5.813802 6.86523,-19.420573 1.11328,-4.886067 3.77279,-4.886067 0.30924,0 3.58724,-1.051433 0.86588,-0.123697 1.42252,-0.123697 z m -17.19401,42.05729 h -0.18555 q -0.12369,-3.092447 -0.12369,-4.205729 0,-9.46289 -0.3711,-31.666666 l 0.1237,-0.927734 q 0,-1.979167 -1.05143,-1.979167 0,-0.432942 -5.75195,-0.927734 -2.65951,0.247396 -2.65951,1.608073 0,0.185547 0.2474,1.422526 -0.1237,0.680338 -0.1237,0.804036 0,0.804037 0.1237,0.804037 -0.1237,2.412109 -0.1237,3.52539 v 15.895182 q 0,2.226563 -0.1237,3.277995 0.1237,1.236979 0.1237,3.463542 v 18.36914 q 0,0.742187 -0.1237,2.102864 0.1237,0.185547 0.2474,3.83464 -0.2474,3.40169 -0.2474,9.71028 v 0.68034 q 0,0.92773 0.1237,1.42253 -0.1237,0.86588 -0.1237,1.73177 v 6.30859 q 0,2.7832 -0.1237,6.30859 0.1237,0.80404 0.1237,1.79362 -0.1237,2.35026 -0.2474,3.1543 0.1237,3.40169 0.1237,5.8138 v 4.20573 q 0,0.61849 0.2474,2.10287 -0.2474,0.0618 -0.2474,0.24739 v 0.1237 q 0.61849,1.29883 3.1543,1.29883 7.11263,-0.30925 7.11263,-2.35026 l 0.1237,-1.85547 q 0,-3.0306 -0.1237,-8.78255 0.1237,-2.96875 0.1237,-4.45313 -0.2474,-3.0306 -0.43295,-3.0306 0.18555,-3.33984 0.18555,-4.88606 v -14.03972 q 0,-0.86588 -0.18555,-2.6595 h 0.30925 q 1.29883,3.58724 2.84505,10.26692 0.80404,2.22657 3.0306,10.63803 1.54622,3.95833 3.1543,12.12239 0.55664,1.54622 2.6595,9.2155 1.05143,0.37109 6.43229,0.86588 4.45313,-0.2474 4.45313,-1.42253 -2.72136,-7.05078 -6.67969,-21.95637 -0.80404,-1.73178 -1.97917,-6.92709 -1.11328,-2.84505 -2.9069,-9.46289 -3.52539,-10.57617 -3.52539,-12.36979 v -0.123698 q 0.74219,-1.051432 2.10287,-6.184896 0.80403,-1.855468 4.82422,-15.524088 l 1.97916,-5.628255 q 0,-1.917318 7.66927,-20.533854 -0.18554,-1.546224 -6.61783,-1.546224 -3.5254,0 -3.5254,1.979167 -8.04036,20.657552 -8.04036,23.255208 -4.45312,13.05013 -5.62825,14.84375 z m -5.44271,-33.274739 q 2.78321,0.309245 2.78321,2.659506 -0.68034,3.277994 -2.10287,3.277994 -0.61849,0 -0.80403,0.123698 -2.72136,-0.618489 -2.72136,-1.855468 v -0.494792 q 0.2474,-3.525391 1.66992,-3.525391 0.1237,-0.185547 1.17513,-0.185547 z m 20.90495,0.927735 q 3.278,0.680338 3.278,2.783203 v 0.123698 q 0,2.102864 -2.96875,3.401692 -1.60808,-0.371093 -2.78321,-1.793619 -0.30924,0 -0.37109,-0.680339 0,-1.608073 2.47396,-3.834635 z m -21.27604,12.122395 h 0.37109 q 2.04102,0 2.9069,3.525391 v 0.247396 q -0.92773,1.79362 -3.03059,2.535807 -1.05144,0 -3.1543,-3.030599 v -0.55664 q 1.11328,-2.721355 2.9069,-2.721355 z m 16.32812,2.102865 h 0.3711 q 1.97916,0 2.9069,3.525391 v 0.247395 q -0.98958,1.79362 -3.0306,2.535808 -1.05143,0 -3.1543,-3.030599 v -0.556641 q 1.05144,-2.721354 2.9069,-2.721354 z m -16.57552,11.813151 h 0.4948 q 2.9069,0 2.9069,2.102864 v 0.556641 q 0,2.35026 -0.92774,2.35026 0,0.309245 -2.10286,0.494792 -2.59766,0 -2.59766,-1.669922 -0.18555,0 -0.30924,-1.360677 0.43294,-2.473958 2.5358,-2.473958 z m 11.68946,3.52539 q 2.7832,0.309245 2.7832,2.659505 -0.68034,3.277995 -2.10286,3.277995 -0.61849,0 -0.80404,0.123698 -2.7832,-0.618489 -2.7832,-1.855469 V 88.93181 q 0.24739,-3.525391 1.73177,-3.525391 0.0618,-0.185547 1.17513,-0.185547 z m -11.19466,9.091797 h 0.12369 q 1.36068,0 3.0306,2.35026 0,1.917318 -2.72135,3.834631 h -0.30925 q -2.22656,0 -3.27799,-2.783198 0,-2.226563 3.1543,-3.401693 z m 8.16406,4.453125 q 3.27799,0.742187 3.27799,2.783206 v 0.12369 q 0,2.10287 -3.0306,3.4017 -1.60807,-0.3711 -2.72135,-1.79362 -0.30925,0 -0.43294,-0.68034 0,-1.60807 2.5358,-3.834636 z m -8.16406,10.514326 q 3.03059,0.37109 3.03059,1.48437 0.1237,0.49479 0.1237,1.05143 v 0.4948 q -0.24739,2.5358 -2.35026,2.5358 h -0.49479 q -3.0306,-0.61849 -3.0306,-1.97916 v -0.80404 q 0.43294,-2.7832 1.42253,-2.7832 z m 13.79231,1.05143 q 1.97917,0 2.53581,3.83463 0,2.04102 -3.95833,2.35026 -1.97917,-2.04101 -1.97917,-4.08203 1.29883,-2.10286 3.40169,-2.10286 z m -12.61718,13.05013 q 1.85546,1.05143 1.85546,4.08203 v 0.1237 q 0,1.36067 -3.15429,1.97916 -2.10287,0 -2.47396,-3.58723 0,-2.59766 3.77279,-2.59766 z m 15.64778,0.37109 h 0.68034 q 1.66992,0 2.10286,3.83464 -1.97916,1.97916 -4.20572,1.97916 -1.97917,-1.29882 -1.97917,-3.03059 v -0.43295 q 0,-1.85547 3.40169,-2.35026 z m -16.69922,12.36979 q 2.78321,0.2474 2.78321,1.85547 v 1.05143 q 0,2.96875 -2.47396,2.96875 h -0.68034 q -2.10287,0 -2.35026,-2.47395 0,-2.84506 1.97917,-3.278 0.18554,-0.1237 0.74218,-0.1237 z m 19.85352,0.2474 h 0.43294 q 2.84505,0.92773 2.84505,4.08203 -1.23698,1.66992 -2.84505,2.22656 h -0.1237 q -1.36067,0 -3.0306,-3.0306 l -0.12369,-0.61849 q 1.17513,-2.6595 2.84505,-2.6595 z"
         style="font-style:normal;font-variant:normal;font-weight:normal;font-stretch:normal;font-size:126.66666412px;font-family:'Cupcake Movie';-inkscape-font-specification:'Cupcake Movie';fill:none;stroke:#969696;stroke-width:1.51181102;stroke-miterlimit:4;stroke-dasharray:1.51181102, 1.51181102;stroke-dashoffset:0;stroke-opacity:1"
         id="path1387"
         inkscape:connector-curvature="0" />
      <path
         d="m 318.81096,47.946785 h 2.65951 q 2.96875,0 9.15364,1.608072 4.70052,1.917318 7.66927,5.133464 3.1543,4.638672 3.1543,17.441406 v 10.390625 q 0,21.523438 -3.58724,25.791018 -2.28841,4.57682 -7.60742,6.67968 -5.62826,1.54623 -6.30859,1.54623 -0.55664,0 -0.55664,0.18554 -0.1237,0.18555 -0.1237,0.4948 v 0.92773 q 0,5.50456 0.1237,8.28776 -0.2474,6.67969 -0.2474,16.26628 v 0.92773 q 0,2.41211 0.1237,6.0612 0,2.16471 -3.0306,2.9069 -4.63867,1.42253 -5.87565,1.42253 h -2.53581 q -3.46354,0 -4.02018,-2.22657 -0.68034,-1.66992 -0.68034,-8.9681 v -10.32877 q 0.2474,-15.46224 0.2474,-16.82292 v -1.97916 q 0,-2.35026 0.12369,-3.83464 -0.12369,-1.17513 -0.12369,-2.59766 0.24739,-15.709631 0.55664,-47.74739 0.18554,-1.360678 0.49479,-7.483724 0.92773,-2.845052 4.20573,-2.845052 2.35026,-1.236979 6.18489,-1.236979 z m -5.62825,7.11263 v 1.298828 q 0,0.494791 -0.30925,2.288411 l -0.49479,48.489586 q 0,0.55664 0.1237,1.66992 -0.1237,1.29883 -0.1237,3.27799 v 2.22657 q -0.24739,13.91601 -0.24739,15.77148 v 15.89518 q 0,5.13346 1.42252,5.13346 1.29883,0.30925 2.65951,0.30925 5.25716,-0.37109 5.25716,-1.60807 0,-5.56641 -0.18555,-10.51433 0.30925,-10.57617 0.30925,-12.36979 -0.1237,-5.99935 -0.1237,-7.85481 0.1237,-5.00977 0.74219,-5.00977 h 1.36067 q 8.72071,0 12.06055,-5.50456 1.48437,-1.85547 2.35026,-5.38086 1.36068,-0.74218 1.73177,-22.32747 v -5.9375 q 0,-15.957031 -3.0306,-19.296875 -5.50456,-5.9375 -17.31771,-5.9375 -5.9375,0 -5.9375,1.979167 -0.24739,0.804036 -0.24739,3.401693 z m 16.26627,-1.979167 q 2.78321,0.309245 2.78321,1.855469 v 1.051432 q 0,3.030599 -2.53581,3.030599 h -0.61849 q -2.16471,0 -2.35026,-2.473958 0,-2.845052 1.91732,-3.339844 0.24739,-0.123698 0.80403,-0.123698 z m -12.36979,1.360677 h 0.80404 q 1.97916,0 2.35026,2.473958 -0.18555,3.154297 -1.54623,3.154297 -0.55664,0.247396 -0.80403,0.247396 -3.0306,0 -3.0306,-1.546224 -0.1237,-0.927734 -0.1237,-1.484375 0,-2.721354 1.85547,-2.721354 0,-0.123698 0.49479,-0.123698 z m 7.36003,4.824219 h 1.48437 q 2.22656,0 3.77279,3.401692 0.43294,2.226563 0.68034,4.886068 -0.1237,7.421875 -0.1237,10.638021 0,2.906901 0.2474,11.442057 0,11.256508 -3.77279,14.039708 0,0.61849 -3.83464,0.80404 -0.37109,-0.61849 -0.37109,-1.05143 l -0.30924,-13.544923 0.12369,-1.546223 q -0.12369,-1.23698 -0.12369,-2.659506 0,-0.989583 0.43294,-4.576822 -0.30925,-4.267578 -0.30925,-5.009766 0,-16.699218 0.92774,-16.699218 0.74218,-0.123698 1.17513,-0.123698 z m -0.1237,3.958333 q -0.1237,7.607422 -0.1237,11.132812 0,2.41211 0.1237,7.669271 -0.2474,1.484375 -0.2474,3.154297 0,3.958333 0.1237,15.214843 v 0.1237 h 0.1237 q 1.17513,-2.721356 1.17513,-10.081382 0,-2.96875 -0.2474,-10.390625 0.1237,-9.029947 0.1237,-11.689453 -0.43294,-5.133463 -1.05143,-5.133463 z m 11.07096,1.546224 h 0.1237 q 2.47396,1.979167 2.47396,4.082031 -1.36068,2.226563 -3.40169,2.226563 -2.59766,-0.927735 -2.59766,-3.896485 0,-1.484375 3.40169,-2.412109 z m -17.75065,5.133463 q 1.73177,0 2.9069,2.783203 v 0.247396 q 0,2.226563 -3.27799,3.154297 h -0.30925 q -1.48437,0 -2.72135,-2.906901 0.80404,-2.102864 3.1543,-3.277995 z m 16.82292,9.215495 q 1.48437,0 3.1543,2.226562 0,2.102865 -2.47396,4.082032 h -0.18555 q -3.40169,-0.742188 -3.40169,-2.350261 v -0.804036 q 0,-1.979167 2.9069,-3.154297 z m -17.75065,6.061198 q 2.7832,0.247396 2.7832,1.793619 v 1.051433 q 0,3.030599 -2.53581,3.030599 H 316.337 q -2.16471,0 -2.41211,-2.473959 0,-2.845052 1.97917,-3.277994 0.2474,-0.123698 0.80404,-0.123698 z m 17.37955,10.205078 q 3.4017,0.804036 3.4017,2.783203 0,2.288412 -3.0306,3.525392 h -0.1237 q -1.29883,0 -3.0306,-2.226564 V 99.21957 q 0,-1.855469 2.59766,-3.834635 z m -17.25585,4.082031 h 0.24739 q 1.54623,0 3.1543,3.154294 v 0.43295 q -0.98958,2.72135 -3.1543,2.72135 -2.10286,0 -2.96875,-3.77279 0.61849,-1.54622 2.72136,-2.535804 z m 9.33919,6.184894 q 2.7832,0.2474 2.7832,1.85547 v 1.05143 q 0,3.0306 -2.53581,3.0306 h -0.61849 q -2.16471,0 -2.4121,-2.53581 0,-2.7832 1.97916,-3.27799 0.2474,-0.1237 0.80404,-0.1237 z m -9.95768,8.04037 q 3.27799,0.49479 3.27799,1.66992 0.2474,0.80403 0.2474,1.05143 -0.30925,2.9069 -2.10287,2.9069 h -0.68034 q -3.0306,-0.30924 -3.0306,-1.42252 -0.24739,-0.55665 -0.24739,-1.48438 0.30924,-2.59766 2.22656,-2.59766 z m 0.86588,13.91601 q 1.79362,0.68034 2.53581,2.10287 l 0.37109,0.68033 q 0,1.66993 -3.15429,3.52539 h -0.1237 q -3.0306,-0.92773 -3.0306,-2.9069 0,-2.35026 3.40169,-3.40169 z m -0.37109,13.11198 q 2.7832,0.30924 2.7832,1.85547 v 1.05143 q 0,3.0306 -2.53581,3.0306 H 316.337 q -2.16471,0 -2.41211,-2.47396 0,-2.84505 1.97917,-3.27799 0.2474,-0.18555 0.80404,-0.18555 z"
         style="font-style:normal;font-variant:normal;font-weight:normal;font-stretch:normal;font-size:126.66666412px;font-family:'Cupcake Movie';-inkscape-font-specification:'Cupcake Movie';fill:none;stroke:#969696;stroke-width:1.51181102;stroke-miterlimit:4;stroke-dasharray:1.51181102, 1.51181102;stroke-dashoffset:0;stroke-opacity:1"
         id="path1389"
         inkscape:connector-curvature="0" />
      <path
         d="m 369.11501,45.946785 q 10.01953,0 16.51367,13.111978 4.26758,11.689453 4.26758,25.234375 0.37109,0 0.49479,40.882162 0,10.94726 -2.84505,18.49284 -2.10287,4.26757 -7.11263,6.06119 -3.95834,2.28842 -9.71029,2.28842 h -1.48437 q -4.14388,0 -10.08138,-3.1543 -4.14388,-3.64909 -5.44271,-7.17448 0,-0.18555 -1.73177,-4.94792 -1.66992,-13.23567 -1.66992,-19.91536 v -5.56641 q 0,-5.00976 -0.1237,-7.42187 0.24739,-31.975912 0.86588,-37.171225 0,-2.473958 2.53581,-10.205078 3.09245,-6.370442 8.34961,-8.473307 3.40169,-1.422526 3.89648,-1.422526 0.98959,-0.371094 3.278,-0.618489 z M 354.5805,99.075039 q 0,1.855471 -0.12369,3.401691 0.12369,1.54623 0.12369,4.26758 v 6.0612 q 0,9.58659 1.79362,22.94596 0.68034,1.23698 1.60808,4.26758 0.68034,2.22656 4.32942,5.8138 3.21615,2.22656 7.54558,3.1543 0.68033,0.12369 1.54622,0.12369 h 3.77279 q 5.07161,0 9.21549,-3.77278 2.47396,-2.35026 3.77279,-11.07096 0.37109,-2.96875 0.49479,-7.36003 0,-50.839843 -1.29883,-53.684895 0,-4.76237 -4.26758,-15.524089 -4.14388,-6.803385 -9.09179,-9.091796 -1.73177,-0.865886 -4.76237,-0.865886 h -0.3711 q -6.67968,0 -11.13281,8.287761 -2.9069,6.865234 -2.9069,22.822265 -0.2474,5.999349 -0.2474,20.224609 z M 365.21852,52.75017 q 2.59766,0.309245 2.59766,1.79362 v 0.989583 q 0,2.906901 -2.35026,2.906901 h -0.61849 q -2.04101,0 -2.28841,-2.412109 0,-2.721355 1.85547,-3.154297 0.18555,-0.123698 0.80403,-0.123698 z m 11.81316,1.79362 q 2.6595,0.247395 2.6595,1.73177 v 1.051433 q 0,2.906901 -2.41211,2.906901 h -0.61849 q -2.04101,0 -2.28841,-2.41211 0,-2.721354 1.91732,-3.154296 0.18554,-0.123698 0.74219,-0.123698 z m -7.42188,3.649088 q 2.04102,0.247396 4.14388,2.288411 4.70052,6.370443 4.70052,9.586589 1.23698,3.463541 1.23698,16.513671 v 3.154297 q 0,4.453125 -0.1237,6.55599 l 0.3711,25.976564 q -0.43295,13.23567 -1.11328,13.23567 -1.60808,2.35026 -4.94792,3.77279 h -0.74219 q -5.19531,0 -7.05078,-4.76237 -2.16471,-3.64909 -2.16471,-18.18359 -0.1237,-4.32943 -0.1237,-13.23568 v -2.04101 q 0,-20.904952 0.61849,-29.501957 l -0.1237,-0.742188 q 0.92773,-9.091796 1.66992,-9.091796 2.10287,-3.525391 3.64909,-3.525391 z m -1.48437,3.277995 q -1.54623,1.979166 -1.54623,5.071614 -0.18555,0 -0.49479,4.267578 l 0.1237,0.865886 q -0.61849,0 -0.61849,31.171879 v 6.43229 q 0,19.54427 1.23698,22.57487 2.16471,5.13346 3.40169,5.13346 0,0.37109 1.91732,0.55664 h 0.74219 q 2.28841,-1.05143 2.28841,-5.07161 l 0.37109,-10.08138 q -0.2474,-21.27605 -0.37109,-24.739587 0.12369,-1.917318 0.12369,-4.886068 v -7.73112 q 0,-15.338541 -3.52539,-19.420572 -1.66992,-2.96875 -3.64908,-4.14388 z m 14.22526,3.401692 q 2.6595,0.247396 2.6595,1.79362 v 0.989583 q 0,2.906901 -2.41211,2.906901 h -0.61849 q -2.04101,0 -2.28841,-2.412109 0,-2.721354 1.91732,-3.154297 0.18555,-0.123698 0.74219,-0.123698 z m -22.45118,1.298829 q 2.65951,0.247395 2.65951,1.73177 v 0.989584 q 0,2.906901 -2.41211,2.906901 h -0.61849 q -2.04102,0 -2.28841,-2.350261 0,-2.721354 1.91732,-3.154297 0.18554,-0.123697 0.74218,-0.123697 z m 23.68815,11.565755 q 2.65951,0.247395 2.65951,1.793619 v 0.989584 q 0,2.906901 -2.41211,2.906901 h -0.61849 q -2.04101,0 -2.28841,-2.41211 0,-2.721354 1.91732,-3.154297 0.18554,-0.123697 0.74218,-0.123697 z m -24.67773,3.277994 q 2.65951,0.247396 2.65951,1.79362 v 0.989583 q 0,2.906901 -2.41211,2.906901 h -0.61849 q -2.04102,0 -2.28841,-2.412109 0,-2.721354 1.85546,-3.154297 0.2474,-0.123698 0.80404,-0.123698 z m 24.67773,10.328776 q 2.65951,0.247396 2.65951,1.79362 v 0.989583 q 0,2.906901 -2.41211,2.906901 h -0.61849 q -2.04101,0 -2.28841,-2.412109 0,-2.721354 1.91732,-3.154297 0.18554,-0.123698 0.74218,-0.123698 z m -24.92512,6.308594 q 2.59765,0.247396 2.59765,1.793619 v 0.989588 q 0,2.9069 -2.35026,2.9069 h -0.68034 q -2.04101,0 -2.22656,-2.41211 0,-2.721357 1.85547,-3.154299 0.18555,-0.123698 0.80404,-0.123698 z m 25.29622,9.833987 q 2.6595,0.43294 2.6595,1.29882 l 0.1237,0.74219 v 0.3711 q 0,3.27799 -2.10286,3.27799 h -0.3711 q -2.7832,0 -2.7832,-2.53581 0.30925,-3.15429 2.47396,-3.15429 z m -25.04883,5.8138 q 2.65951,0.24739 2.65951,1.79362 v 0.98958 q 0,2.9069 -2.41211,2.9069 h -0.61849 q -2.04102,0 -2.28841,-2.41211 0,-2.72135 1.85546,-3.15429 0.2474,-0.1237 0.80404,-0.1237 z m 25.48177,7.79297 q 2.59766,0.30924 2.59766,2.04101 v 0.49479 q -0.18555,3.1543 -1.36068,3.1543 -0.86588,0.1237 -1.54622,0.1237 -2.47396,-0.30925 -2.47396,-2.53581 0,-2.59765 1.97916,-3.09245 z m -23.25521,11.38021 q 2.65951,0.24739 2.65951,2.04101 v 0.49479 q -0.2474,3.1543 -1.36068,3.1543 -0.92773,0.1237 -1.54622,0.1237 -2.47396,-0.30925 -2.47396,-2.53581 0,-2.6595 1.97917,-3.1543 z m 21.95638,0.24739 q 2.65951,0.30925 2.65951,2.04102 v 0.49479 q -0.2474,3.1543 -1.36068,3.1543 -0.92773,0.12369 -1.54622,0.12369 -2.53581,-0.30924 -2.53581,-2.5358 0,-2.65951 2.04102,-3.1543 z m -12.86458,8.34961 q 2.65951,0.2474 2.65951,1.97917 v 0.49479 q -0.2474,3.1543 -1.36068,3.1543 -0.92774,0.12369 -1.54623,0.12369 -2.5358,-0.24739 -2.5358,-2.47395 0,-2.65951 2.04101,-3.1543 z"
         style="font-style:normal;font-variant:normal;font-weight:normal;font-stretch:normal;font-size:126.66666412px;font-family:'Cupcake Movie';-inkscape-font-specification:'Cupcake Movie';fill:none;stroke:#969696;stroke-width:1.51181102;stroke-miterlimit:4;stroke-dasharray:1.51181102, 1.51181102;stroke-dashoffset:0;stroke-opacity:1"
         id="path1391"
         inkscape:connector-curvature="0" />
      <path
         d="m 415.66709,47.142748 q 1.85547,0.247396 3.58724,0.247396 0.30925,0 1.05143,-0.123698 5.81381,0.494792 8.28776,1.669922 4.26758,2.041015 6.55599,8.164062 1.54623,6.803385 1.54623,13.173828 -0.1237,4.14388 -0.1237,9.029948 0,0.989583 0.1237,2.96875 -0.86589,9.648437 -3.46354,18.369144 -2.53581,7.23632 -5.81381,10.57617 5.50456,2.41211 7.23633,6.98893 2.04102,5.44271 2.04102,18.74023 0,3.52539 -0.2474,11.62761 0.2474,0.49479 0.2474,1.05143 0,1.97917 -3.83464,2.96875 -1.05143,1.05143 -2.84505,1.05143 h -4.57682 q -4.08203,-0.43294 -4.08203,-2.72135 0.12369,-7.23633 0.12369,-9.2155 0,-7.48372 -1.29882,-16.14257 -0.68034,-1.85547 -2.10287,-3.09245 v 3.77278 q 0,3.58724 0.1237,5.00977 -0.1237,1.97917 -0.1237,5.31901 v 3.46354 q 0,2.35026 0.30925,2.96875 -0.18555,0.92774 -0.18555,1.42253 v 1.05143 q 0,1.29883 0.18555,3.21615 0,2.10286 -2.35026,3.27799 -1.23698,0.30925 -3.64909,1.54622 -1.54623,0.3711 -2.16472,0.3711 h -1.17513 q -0.37109,0 -0.37109,0.1237 l -0.68034,-0.1237 h -1.11328 q -5.19531,0 -5.19531,-3.64909 v -2.28841 q 0,-9.71029 0.80403,-30.12044 v -6.86524 q 0,-4.51497 0.2474,-7.60742 -0.1237,-1.60807 -0.1237,-1.66992 0.18555,-7.916668 0.3711,-7.916668 l -0.1237,-0.865886 V 75.840664 q 0,-2.96875 0.1237,-6.988932 -0.1237,-0.680338 -0.1237,-1.546224 0.30924,-15.40039 0.86588,-15.40039 0,-0.927735 1.60808,-2.288412 1.54622,0 2.7832,-1.17513 5.6901,-0.804036 7.54557,-1.298828 z m -8.41146,18.740234 q 0.2474,2.226563 0.2474,2.597656 -0.2474,3.958334 -0.2474,7.360026 v 9.833984 q 0,3.216146 0.1237,7.978516 -0.24739,2.473958 -0.37109,6.617836 0.1237,1.11328 0.1237,1.29883 0,3.0306 -1.05144,45.83008 0,3.27799 1.17513,3.27799 1.17513,0.3711 4.26758,0.3711 h 0.1237 q 4.26758,0 4.88607,-2.04102 -0.1237,-2.72135 -0.1237,-3.77279 0,-0.86588 0.1237,-2.59765 l -0.2474,-1.79362 q 0.1237,-4.82422 0.1237,-5.9375 0,-2.28841 -0.1237,-16.45182 0,-0.30925 0.2474,-1.54623 h 0.1237 q 1.73177,0.18555 5.31901,2.84505 3.09244,3.21615 3.09244,8.04037 0.92774,6.98893 0.92774,14.96745 -0.1237,2.04101 -0.1237,6.24674 v 0.49479 q 0,1.29883 3.33984,1.29883 h 2.84506 q 1.97916,0 2.96875,-1.17513 -0.2474,-0.61849 -0.3711,-1.54622 0.2474,-3.4017 0.2474,-9.58659 v -3.46354 q 0,-15.64779 -3.77279,-19.23503 -1.73177,-1.73177 -6.55599,-4.26758 v -0.18554 q 4.45313,-3.21615 7.36003,-12.493494 2.16471,-7.483724 2.96875,-16.142578 0,-1.917317 -0.1237,-5.195312 0.1237,-5.442708 0.1237,-8.28776 0,-14.534505 -6.1849,-18.183594 -3.15429,-1.669921 -6.49414,-1.669921 0,-0.185547 -1.66992,-0.309245 -1.29883,0.123698 -1.91732,0.123698 -1.91732,-0.247396 -2.84505,-0.247396 -2.59766,0.55664 -7.11263,1.17513 -1.17513,1.422526 -1.17513,8.90625 0,2.412109 -0.2474,6.865234 z M 414.98675,49.9878 q 2.72136,0.247396 2.72136,1.79362 v 1.051432 q 0,2.96875 -2.47396,2.96875 h -0.61849 q -2.10286,0 -2.35026,-2.473958 0,-2.783203 1.97917,-3.216146 0.18554,-0.123698 0.74218,-0.123698 z m 12.43164,3.463542 q 2.72136,0.309245 2.72136,1.855468 v 0.989584 q 0,2.96875 -2.47396,2.96875 h -0.61849 q -2.10286,0 -2.35026,-2.41211 0,-2.783203 1.91732,-3.277994 0.18554,-0.123698 0.80403,-0.123698 z m -9.02994,3.52539 q 3.40169,0.556641 4.51497,1.917318 2.96875,2.288411 2.96875,16.57552 0,0.309245 0.1237,3.463542 0,12.617187 -3.09245,18.492838 -1.48437,4.70052 -5.07161,7.36003 h -0.3711 q 0,-0.1237 -0.37109,-1.17513 -0.30925,-7.174483 -0.30925,-9.833988 v -8.90625 q 0,-5.071615 -0.86588,-23.873697 0,-3.772787 1.05143,-3.772787 0.49479,0 1.42253,-0.247396 z m -0.68034,3.463542 v 0.247396 q 0.92773,21.461588 0.92773,28.079426 v 8.90625 h 0.1237 q 2.59766,-6.246745 2.59766,-12.926432 0,-1.608073 0.24739,-4.514974 -0.55664,-17.441406 -1.79362,-17.441406 -0.30924,-1.236979 -1.97916,-2.35026 z m -6.1849,0.371094 q 2.72136,0.309244 2.72136,1.855468 v 0.989584 q 0,3.030599 -2.47396,3.030599 h -0.61849 q -2.10287,0 -2.35026,-2.473959 0,-2.783203 1.91732,-3.216145 0.18554,-0.185547 0.80403,-0.185547 z m 18.1836,4.267578 q 2.72135,0.309244 2.72135,1.855468 v 0.989584 q 0,2.96875 -2.41211,2.96875 h -0.68034 q -2.10286,0 -2.28841,-2.41211 0,-2.783203 1.91732,-3.216145 0.18555,-0.185547 0.74219,-0.185547 z m -18.1836,10.08138 q 2.72136,0.309244 2.72136,1.855468 v 0.989584 q 0,2.96875 -2.47396,2.96875 h -0.61849 q -2.10287,0 -2.35026,-2.41211 0,-2.783203 1.91732,-3.216145 0.18554,-0.185547 0.80403,-0.185547 z m 18.61654,2.721354 q 2.72135,0.309245 2.72135,1.855469 v 0.989583 q 0,2.96875 -2.47396,2.96875 h -0.68033 q -2.04102,0 -2.28842,-2.41211 0,-2.783203 1.91732,-3.277994 0.18555,-0.123698 0.80404,-0.123698 z m -18.61654,11.25651 q 2.72136,0.247396 2.72136,1.79362 v 1.051432 q 0,2.96875 -2.47396,2.96875 h -0.61849 q -2.10287,0 -2.35026,-2.473958 0,-2.783203 1.91732,-3.216146 0.18554,-0.123698 0.80403,-0.123698 z m 17.44141,0.371094 q 2.72135,0.309245 2.72135,1.855468 v 0.989584 q 0,2.96875 -2.47396,2.96875 h -0.61849 q -2.10286,0 -2.35026,-2.41211 0,-2.783203 1.91732,-3.277994 0.18555,-0.123698 0.80404,-0.123698 z m -4.26758,11.627606 q 2.72135,0.30924 2.72135,1.85547 v 0.98958 q 0,2.96875 -2.47395,2.96875 h -0.61849 q -2.10287,0 -2.35026,-2.41211 0,-2.7832 1.91731,-3.27799 0.2474,-0.1237 0.80404,-0.1237 z m -13.17383,1.97916 q 2.72136,0.2474 2.72136,1.79362 v 1.05144 q 0,2.96875 -2.47396,2.96875 h -0.61849 q -2.10287,0 -2.35026,-2.47396 0,-2.78321 1.91732,-3.21615 0.18554,-0.1237 0.80403,-0.1237 z m 7.85482,5.44271 q 2.59766,0.2474 2.59766,1.79362 v 0.98959 q 0,3.03059 -2.47396,3.03059 h -0.61849 q -2.35026,-0.37109 -2.35026,-2.35026 v -0.12369 q 0.30924,-3.21615 1.97916,-3.21615 0.1237,-0.1237 0.86589,-0.1237 z m -8.22591,6.92709 q 2.6595,0.30924 2.6595,1.85546 v 0.98959 q 0,2.96875 -2.41211,2.96875 h -0.68033 q -2.10287,0 -2.28842,-2.41211 0,-2.7832 1.91732,-3.278 0.18555,-0.12369 0.80404,-0.12369 z m 16.63737,1.17513 q 2.72135,0.24739 2.72135,1.79362 v 1.05143 q 0,2.96875 -2.47396,2.96875 h -0.61849 q -2.10286,0 -2.35026,-2.47396 0,-2.7832 1.97917,-3.21615 0.18555,-0.12369 0.74219,-0.12369 z m -16.63737,11.6276 q 2.6595,0.2474 2.6595,1.79362 v 1.05143 q 0,2.96875 -2.41211,2.96875 h -0.68033 q -2.10287,0 -2.28842,-2.41211 0,-2.84505 1.91732,-3.27799 0.18555,-0.1237 0.80404,-0.1237 z m 19.72982,1.17513 q 2.72135,0.2474 2.72135,1.79362 v 1.05143 q 0,2.96875 -2.47396,2.96875 h -0.61849 q -2.10286,0 -2.35026,-2.47396 0,-2.7832 1.97917,-3.21614 0.18555,-0.1237 0.74219,-0.1237 z m -19.72982,10.88542 q 2.6595,0.24739 2.6595,1.79362 v 0.98958 q 0,3.0306 -2.41211,3.0306 h -0.68033 q -2.10287,0 -2.28842,-2.47396 0,-2.7832 1.91732,-3.21615 0.18555,-0.12369 0.80404,-0.12369 z m 19.35872,0.74218 q 2.72136,0.2474 2.72136,1.79362 v 1.05144 q 0,2.96875 -2.47396,2.96875 h -0.61849 q -2.10287,0 -2.35026,-2.47396 0,-2.78321 1.91732,-3.21615 0.24739,-0.1237 0.80403,-0.1237 z"
         style="font-style:normal;font-variant:normal;font-weight:normal;font-stretch:normal;font-size:126.66666412px;font-family:'Cupcake Movie';-inkscape-font-specification:'Cupcake Movie';fill:none;stroke:#969696;stroke-width:1.51181102;stroke-miterlimit:4;stroke-dasharray:1.51181102, 1.51181102;stroke-dashoffset:0;stroke-opacity:1"
         id="path1393"
         inkscape:connector-curvature="0" />
      <path
         d="m 478.87673,48.008634 h 2.84505 q 2.72135,0 3.52539,1.917317 0.61849,2.041016 0.61849,5.195313 0,3.834635 -1.54622,5.071614 -0.86589,0.371094 -1.97917,0.371094 h -0.1237 q 0,0.865885 -2.04101,1.17513 -1.17513,0 -6.24675,0.123698 l -0.1237,0.309245 v 3.463541 q 0,12.060547 -0.92773,63.024084 v 8.8444 q 0,0.74219 -0.3711,6.92709 0.1237,1.29883 0.2474,1.54622 -0.30924,5.8138 -1.79362,5.8138 l -4.32943,1.85547 q -1.66992,0.2474 -4.14388,0.3711 -5.5664,0 -5.5664,-3.278 v -0.98958 q 0,-3.21615 0.37109,-4.57682 l -0.1237,-1.54623 v -3.27799 q 0.2474,-7.79297 0.2474,-8.65886 v -15.21484 q 0,-14.41081 0.49479,-18.863933 -0.1237,-2.164713 -0.1237,-3.339844 V 83.076992 q 0,-4.020182 0.1237,-10.947265 0.30925,-0.804037 0.30925,-0.989584 -0.30925,-3.401692 -0.30925,-8.102213 v -0.865885 q -8.16406,0.123698 -11.68945,0.123698 -2.53581,0 -2.96875,-5.071615 v -3.401693 q 0,-4.391275 3.52539,-4.391275 0,0.123697 0.1237,0.123697 0,-0.680338 2.04101,-1.298828 0.68034,0.123698 0.80404,0.123698 0.86588,0 2.59765,-0.123698 0.86589,0 1.54623,0.123698 16.14258,-0.371093 24.98698,-0.371093 z m -24.73959,2.164713 q -1.11328,-0.123698 -1.91731,-0.123698 -0.2474,0 -2.35026,0.123698 -0.68034,-0.123698 -1.05144,-0.123698 -1.11328,0.309245 -1.17513,3.649089 0.18555,5.690104 1.29883,5.690104 10.14323,-0.247396 13.29753,-0.247396 l 0.1237,0.247396 v 1.298828 q 0,3.339843 0.24739,9.524739 0,0.247396 -0.24739,1.546224 -0.1237,12.617187 -0.1237,17.255859 0,2.102865 0.1237,8.473307 -0.55664,3.772791 -0.55664,32.779951 v 1.11328 q -0.2474,8.04036 -0.2474,8.597 0,1.73177 0.1237,4.45313 -0.2474,1.54622 -0.3711,5.31901 0,1.29883 3.89649,1.29883 5.44271,0 5.44271,-1.73177 0,-0.68034 0.30924,-3.46355 -0.18555,-1.36067 -0.30924,-1.60807 0.43294,-4.32943 0.43294,-6.61784 0,-11.6276 0.86588,-61.477861 0,-6.865234 0.1237,-17.008463 0.61849,-0.247396 2.10287,-0.247396 h 8.4733 q 1.42253,0 1.42253,-3.092448 v -2.102864 q 0,-3.896485 -1.54622,-3.896485 h -6.12305 q -11.68945,0 -22.26563,0.371094 z m 21.33789,0.804036 q 2.72136,0.309245 2.72136,2.041016 v 0.556641 q -0.2474,3.216145 -1.42253,3.216145 -0.92773,0.185547 -1.54622,0.185547 -2.59766,-0.309244 -2.59766,-2.659505 0,-2.721354 2.04102,-3.216146 z m -22.63671,0.247396 q 2.7832,0.309245 2.7832,2.102865 v 0.494791 q -0.2474,3.277995 -1.48438,3.277995 -0.86588,0.123698 -1.54622,0.123698 -2.59766,-0.309245 -2.59766,-2.597656 0,-2.721354 2.10287,-3.277995 z m 11.44205,0 q 2.72136,0.309245 2.72136,2.102865 v 0.494791 q -0.18555,3.277995 -1.42253,3.277995 -0.86588,0.123698 -1.54622,0.123698 -2.59766,-0.309245 -2.59766,-2.597656 0,-2.721354 2.10287,-3.277995 z m 3.1543,12.988281 q 2.72135,0.309245 2.72135,2.102865 v 0.494791 q -0.24739,3.277995 -1.42252,3.277995 -0.92774,0.123698 -1.54623,0.123698 -2.59765,-0.309245 -2.59765,-2.597656 0,-2.721354 2.04101,-3.277995 z m 0.49479,13.792318 q 2.72136,0.309244 2.72136,2.102864 v 0.494792 q -0.2474,3.216146 -1.42253,3.216146 -0.92773,0.185547 -1.54622,0.185547 -2.59766,-0.309245 -2.59766,-2.597657 0,-2.783203 2.10286,-3.277994 z m -0.74219,13.483072 q 2.72136,0.309245 2.72136,2.102865 v 0.494792 q -0.2474,3.277994 -1.42253,3.277994 -0.92773,0.123698 -1.60807,0.123698 -2.59766,-0.309245 -2.59766,-2.597656 0,-2.721354 2.10287,-3.277995 z m 0,14.34896 q 2.72136,0.24739 2.72136,2.04101 v 0.55664 q -0.2474,3.21615 -1.42253,3.21615 -0.92773,0.1237 -1.60807,0.1237 -2.59766,-0.30925 -2.59766,-2.59766 0,-2.72135 2.10287,-3.21614 z m -0.30924,13.23568 q 2.7832,0.24739 2.7832,2.04101 v 0.55664 q -0.24739,3.21615 -1.48437,3.21615 -0.86589,0.1237 -1.54623,0.1237 -2.59765,-0.2474 -2.59765,-2.59766 0,-2.72136 2.10286,-3.21615 z m 0,11.44205 q 2.7832,0.2474 2.7832,2.04102 v 0.55664 q -0.24739,3.21614 -1.48437,3.21614 -0.86589,0.1237 -1.54623,0.1237 -2.59765,-0.30924 -2.59765,-2.59765 0,-2.72136 2.10286,-3.21615 z m -0.49479,11.93685 q 2.72135,0.30925 2.72135,2.10287 v 0.49479 q -0.24739,3.27799 -1.42252,3.27799 -0.92774,0.1237 -1.54623,0.1237 -2.59765,-0.30924 -2.59765,-2.59766 0,-2.72135 2.04101,-3.27799 z"
         style="font-style:normal;font-variant:normal;font-weight:normal;font-stretch:normal;font-size:126.66666412px;font-family:'Cupcake Movie';-inkscape-font-specification:'Cupcake Movie';fill:none;stroke:#969696;stroke-width:1.51181102;stroke-miterlimit:4;stroke-dasharray:1.51181102, 1.51181102;stroke-dashoffset:0;stroke-opacity:1"
         id="path1395"
         inkscape:connector-curvature="0" />
      <path
         d="m 511.63519,47.63754 q 5.13346,0 12.1224,2.721354 0.80403,0 1.91731,7.050781 0,0.556641 0.74219,4.391276 0.3711,2.845052 1.05143,12.740885 0.2474,1.236979 1.17513,17.070312 1.23698,14.225262 3.21615,28.821612 l 1.79362,17.99805 q 0.1237,0.24739 0.86589,10.94726 0,2.22657 -4.20573,3.09245 -1.66993,0.61849 -6.4323,1.54623 h -0.55664 q -3.27799,0 -4.20573,-2.28842 -1.17513,-2.6595 -1.66992,-11.07096 -1.42252,-15.0293 -1.42252,-15.95703 h -0.1237 q -3.1543,-0.37109 -12.36979,-0.55664 0,3.0306 -1.54623,11.07096 -1.05143,10.14323 -2.04101,13.79232 -0.74219,2.72135 -2.72136,2.72135 -3.71093,1.11329 -4.26757,1.11329 h -3.95834 q -4.02018,0 -4.63867,-2.53581 0,-0.30925 -0.1237,-0.55664 1.54623,-11.25651 3.83464,-30.36784 0.68034,-2.9069 2.59765,-15.0293 2.47396,-16.204423 6.3086,-33.831376 1.66992,-9.710286 3.71094,-14.781901 1.36067,-6.184896 3.09244,-6.184896 0.74219,-0.618489 6.67969,-1.917317 z m -22.51302,101.37044 q 0,1.29883 5.25716,1.29883 h 0.2474 q 3.52539,0 3.52539,-1.29883 1.11328,-3.64909 2.28841,-15.58594 0.86589,-3.0306 1.66992,-11.31836 0.18555,0 0.3711,-0.37109 5.19531,-0.1237 7.73112,-0.1237 h 1.54622 q 8.90625,0.18555 8.90625,0.98959 1.54622,15.46224 2.28841,24.73958 0.98958,3.83463 1.91732,3.83463 l 1.91732,0.2474 q 4.94791,-1.11328 5.07161,-1.11328 0.98958,-0.61849 0.98958,-1.17513 l -1.91731,-20.5957 q -1.29883,-12.55534 -3.21615,-27.64649 -1.17513,-12.679034 -1.91732,-26.780597 -0.24739,-1.17513 -1.05143,-12.43164 -0.74219,-2.721354 -1.17513,-6.865234 -0.68034,-3.339844 -1.48438,-3.339844 -6.37044,-2.164713 -10.69986,-2.164713 -4.63868,0 -5.13347,3.092447 -4.14388,13.235677 -4.14388,16.080729 -3.95833,17.8125 -6.0612,31.481119 -0.61849,4.576823 -1.91731,11.503903 -1.42253,8.53516 -2.53581,17.44141 0,1.97917 -2.47396,19.85351 z m 21.58529,-96.484373 q 2.72135,0.247396 2.72135,1.79362 v 1.051432 q 0,2.96875 -2.41211,2.96875 h -0.68034 q -2.04101,0 -2.28841,-2.473958 0,-2.783203 1.91732,-3.216146 0.18555,-0.123698 0.74219,-0.123698 z m 7.73112,5.133464 h 1.17513 q 2.59765,0.927734 2.59765,1.917317 0,2.288412 -1.97916,4.020183 h -0.4948 q -2.96875,0 -3.33984,-2.473959 v -0.247395 q 0,-1.669922 2.04102,-3.216146 z m -4.20573,2.041015 q 0.49479,0 1.11328,6.432292 3.64909,26.285807 3.64909,35.934242 0.49479,5.38086 0.61849,9.40104 -0.1237,0 -0.1237,0.1237 -2.41211,0.1237 -3.46354,0.1237 h -1.29883 q -3.33984,0 -8.22591,0.1237 -2.35026,-0.18555 -2.35026,-0.68034 0,-2.28841 1.66992,-10.76172 l -0.1237,-1.17513 q 0.68034,-3.649088 2.10287,-14.039713 3.09244,-15.771484 4.45312,-20.843099 0.30925,-0.309245 1.85547,-4.638672 z m -9.15365,6.865235 h 0.92774 q 1.79362,0 3.46354,2.041015 -0.30925,3.710938 -2.72136,3.710938 -1.60807,0 -3.33984,-2.164714 v -0.247396 q 0,-1.855468 1.66992,-3.339843 z m 15.95703,3.958333 q 1.36068,0 2.72136,3.587239 v 0.432943 q -1.54623,2.164714 -3.09245,2.164714 h -0.1237 q -2.16471,0 -2.72135,-3.834636 v -0.309245 q 0.55664,-1.236979 3.09244,-2.041015 z m -9.52474,4.76237 q -2.47396,11.689452 -3.58724,21.461588 -0.43294,2.535807 -0.55664,2.597656 l 0.1237,0.247396 v 0.804036 q -0.74219,4.14388 -1.48437,9.64844 h 0.12369 q 0.68034,0 1.11329,0.1237 2.4121,-0.1237 4.26757,-0.1237 h 3.09245 v -1.29883 l -1.05143,-17.626953 q -1.54623,-11.31836 -1.91732,-15.833333 z m -6.80338,5.133463 q 1.79362,1.051432 1.79362,4.020182 v 0.123698 q 0,1.298828 -3.09245,1.917318 -2.10286,0 -2.47396,-3.58724 0,-1.608073 1.85547,-2.226562 1.79362,-0.123698 1.91732,-0.247396 z m 18.74023,4.267578 q 1.54623,1.051432 1.54623,4.082031 0,1.17513 -3.09245,1.855469 -2.41211,-0.494792 -2.41211,-3.339844 0,-2.597656 3.58724,-2.597656 z m -22.38932,11.070963 q 2.72135,0.247396 2.72135,1.79362 v 1.051432 q 0,2.9069 -2.41211,2.9069 h -0.68033 q -2.04102,0 -2.28842,-2.412108 0,-2.783203 1.91732,-3.216146 0.18555,-0.123698 0.74219,-0.123698 z m 22.94596,3.339844 h 0.61849 q 1.48438,0 2.16472,3.339848 v 0.12369 q -1.79362,2.28842 -3.71094,2.28842 -1.36068,0 -2.28841,-2.65951 v -0.68034 q 0.86588,-2.412108 3.21614,-2.412108 z m -25.48177,11.565758 q 1.60808,0 3.33985,1.79362 v 0.68034 q 0,1.79362 -2.04102,3.58723 h -0.43294 q -3.33985,-0.37109 -3.33985,-2.47395 v -0.3711 q 0,-1.60807 2.35026,-3.21614 z m 25.72917,2.59765 q 3.33984,0.92774 3.33984,3.33985 v 0.24739 q -0.37109,1.05144 -1.79362,2.16472 l -0.55664,0.37109 h -0.1237 q -1.85547,0 -3.58724,-2.7832 v -0.43295 q 0,-1.85546 2.72136,-2.9069 z m -13.11198,0.49479 q 2.6595,0.2474 2.6595,1.79362 v 1.05144 q 0,2.96875 -2.4121,2.96875 h -0.68034 q -2.04102,0 -2.28841,-2.47396 0,-2.7832 1.91731,-3.21615 0.18555,-0.1237 0.80404,-0.1237 z m -13.54492,11.81316 q 1.79362,1.23697 1.79362,3.77278 v 0.3711 q 0,1.36067 -3.21615,1.91731 -1.85547,0 -2.28841,-3.46354 0,-2.59765 3.71094,-2.59765 z m 30.24414,0.68033 q 1.42252,1.23698 1.42252,4.08204 -0.86588,1.66992 -2.59765,1.66992 h -0.86589 q -1.91732,-0.2474 -2.04101,-3.33985 0,-2.41211 3.58724,-2.41211 z m -0.49479,13.23568 q 2.6595,0.2474 2.6595,1.79362 v 1.05143 q 0,2.96875 -2.41211,2.96875 h -0.61849 q -2.10286,0 -2.35026,-2.47396 0,-2.7832 1.91732,-3.21614 0.18555,-0.1237 0.80404,-0.1237 z m -32.40886,0.2474 q 2.65951,0.24739 2.65951,1.79362 v 1.05143 q 0,2.96875 -2.41211,2.96875 h -0.68034 q -2.04102,0 -2.28841,-2.47396 0,-2.7832 1.91732,-3.21615 0.18554,-0.12369 0.80403,-0.12369 z"
         style="font-style:normal;font-variant:normal;font-weight:normal;font-stretch:normal;font-size:126.66666412px;font-family:'Cupcake Movie';-inkscape-font-specification:'Cupcake Movie';fill:none;stroke:#969696;stroke-width:1.51181102;stroke-miterlimit:4;stroke-dasharray:1.51181102, 1.51181102;stroke-dashoffset:0;stroke-opacity:1"
         id="path1397"
         inkscape:connector-curvature="0" />
      <path
         d="m 555.67231,45.946785 q 4.94792,0.494791 4.94792,1.298828 1.11328,0 1.73177,3.772786 v 0.123698 q -0.30925,8.782552 -0.30925,9.833984 v 15.091146 q 0.43295,0 0.68034,41.624343 v 2.10287 q 0,0.30924 0.1237,1.97917 -0.1237,0 -0.2474,3.52539 0.2474,5.5664 0.2474,9.77213 v 2.35026 h 2.47396 q 2.96875,0 3.52539,-0.43294 l 0.68034,0.18555 h 5.07161 q 0.61849,0 1.29883,-0.18555 4.45312,0 5.19531,2.10286 0.55664,1.42253 0.55664,4.20573 0,6.86524 -2.35026,6.86524 -0.80403,0 -2.35026,1.05143 -1.29883,0.30924 -1.54622,0.55664 -4.94792,0.1237 -7.48373,0.1237 h -6.12304 q -0.80404,0 -1.66992,-0.1237 -0.55664,0.1237 -0.92774,0.1237 -7.23633,0.1237 -10.01953,0.1237 -2.53581,0 -2.9069,-3.278 v -0.24739 q 0,-3.64909 -0.1237,-5.07162 0,-0.86588 0.1237,-2.22656 -0.1237,-8.47331 -0.1237,-14.47266 v -4.45312 q 0,-1.36068 0.1237,-4.14388 h 0.1237 q 0,-0.18555 -0.1237,-0.18555 0,-3.0306 -0.1237,-4.14388 l 0.2474,-27.893879 q -0.1237,-2.164714 -0.1237,-3.834635 0.2474,-10.390625 0.2474,-19.544271 0,-2.659505 -0.1237,-8.102213 0.55664,-6.370443 1.73177,-6.370443 2.16471,-0.742187 2.84505,-1.17513 0,-0.432943 4.70052,-0.927734 z m -4.82422,8.102213 q 0.1237,2.721354 0.1237,4.453125 v 3.463541 q 0,6.803386 -0.1237,18.307292 l -0.1237,0.494791 0.1237,0.927735 q -0.1237,13.792317 -0.1237,21.770828 v 3.77279 q 0,1.91732 -0.12369,4.45313 0.12369,1.17513 0.24739,5.25716 -0.24739,3.40169 -0.24739,7.54557 v 0.61849 q 0,7.91667 0.24739,14.7819 l -0.24739,2.10286 q 0.12369,1.42253 0.12369,2.59766 v 2.47396 q 0.1237,2.10286 1.29883,2.10286 8.53516,-0.18554 11.19466,-0.30924 2.41211,0.1237 5.87565,0.1237 2.41211,0 8.34961,-0.1237 2.22657,-0.37109 2.22657,-1.66992 0.12369,-0.80404 0.12369,-1.85547 v -3.33985 q 0,-2.9069 -1.29882,-2.9069 -1.23698,-0.24739 -1.42253,-0.24739 -3.46354,0.1237 -5.75195,0.1237 -0.68034,0 -2.47396,-0.1237 -0.49479,0.37109 -4.70052,0.37109 h -2.72136 l -0.24739,-0.1237 q -0.18555,-10.01953 -0.43294,-14.34895 l 0.24739,-1.66993 Q 560.74393,75.943529 560.24913,75.943529 V 62.522305 q 0,-3.772786 0.3711,-10.452474 0,-4.14388 -2.84505,-4.14388 -0.43295,0 -2.22657,-0.123698 -4.08203,0.247396 -4.08203,0.865886 -0.49479,4.824218 -0.61849,5.380859 z m 4.82422,-2.102865 q 2.72136,0.247396 2.72136,1.855469 v 0.989583 q 0,3.030599 -2.47396,3.030599 h -0.61849 q -2.10287,0 -2.35026,-2.473958 0,-2.845052 1.91731,-3.277995 0.18555,-0.123698 0.80404,-0.123698 z m -0.49479,16.946615 q 2.72135,0.309244 2.72135,1.855468 v 1.051433 q 0,2.96875 -2.47395,2.96875 h -0.68034 q -2.10287,0 -2.35026,-2.473959 0,-2.783203 1.97916,-3.277994 0.18555,-0.123698 0.80404,-0.123698 z m 0,14.348958 q 2.72135,0.309244 2.72135,1.855468 v 1.051433 q 0,2.96875 -2.47395,2.96875 h -0.68034 q -2.10287,0 -2.35026,-2.473959 0,-2.783203 1.97916,-3.277994 0.18555,-0.123698 0.80404,-0.123698 z m 0.2474,17.008464 q 2.72135,0.24739 2.72135,1.79362 v 1.05143 q 0,2.96875 -2.47396,2.96875 h -0.68034 q -2.10286,0 -2.35026,-2.47396 0,-2.7832 1.97917,-3.21614 0.18555,-0.1237 0.80404,-0.1237 z m -0.2474,17.99805 q 2.72135,0.24739 2.72135,1.79362 v 1.05143 q 0,3.0306 -2.47395,3.0306 h -0.68034 q -2.10287,0 -2.35026,-2.53581 0,-2.7832 1.97916,-3.21615 0.18555,-0.12369 0.80404,-0.12369 z m 0.49479,15.64778 q 2.72136,0.2474 2.72136,1.79362 v 1.05143 q 0,3.0306 -2.47396,3.0306 h -0.61849 q -2.10287,0 -2.35026,-2.47396 0,-2.84505 1.91731,-3.27799 0.18555,-0.1237 0.80404,-0.1237 z m 17.19401,6.49414 q 2.7832,0.30925 2.7832,1.85547 v 1.05143 q 0,2.96875 -2.47395,2.96875 h -0.68034 q -2.10287,0 -2.35026,-2.47396 0,-2.7832 1.97916,-3.27799 0.18555,-0.1237 0.74219,-0.1237 z m -10.69987,1.85547 q 2.7832,0.2474 2.7832,1.79362 v 1.05143 q 0,3.0306 -2.47395,3.0306 h -0.68034 q -2.10287,0 -2.35026,-2.47396 0,-2.84505 1.97916,-3.27799 0.18555,-0.1237 0.74219,-0.1237 z"
         style="font-style:normal;font-variant:normal;font-weight:normal;font-stretch:normal;font-size:126.66666412px;font-family:'Cupcake Movie';-inkscape-font-specification:'Cupcake Movie';fill:none;stroke:#969696;stroke-width:1.51181102;stroke-miterlimit:4;stroke-dasharray:1.51181102, 1.51181102;stroke-dashoffset:0;stroke-opacity:1"
         id="path1399"
         inkscape:connector-curvature="0" />
    </g>
  </g>
</svg>
