<svg xmlns="http://www.w3.org/2000/svg" width="930" height="788" viewBox="0 0 930 788" id="svgid4" repair="1" xmlns:xlink="http://www.w3.org/1999/xlink"><circle cx="748.166" cy="49.477" r="14.756" fill="rgb(241,241,241)" coriginal="rgb(241,241,241)" colortype="2" awdzp="2"></circle><circle cx="661.166" cy="620.477" r="14.756" fill="rgb(241,241,241)" coriginal="rgb(241,241,241)" colortype="2" awdzp="2"></circle><circle cx="294.166" cy="191.477" r="14.756" fill="rgb(241,241,241)" coriginal="rgb(241,241,241)" colortype="2" awdzp="2"></circle><ellipse cx="157" cy="765" rx="157" ry="23" fill="rgb(241,241,241)" coriginal="rgb(241,241,241)" colortype="2" awdzp="2"></ellipse><path d="M374.936 654.976l39.415-12.348a144.462 144.462 0 0 0-14.722-46.995l-39.415 12.348a88.611 88.611 0 0 1 14.722 46.995z" transform="translate(-135 -56)" fill="rgb(108,99,255)" coriginal="rgb(108,99,255)" colortype="12" awdzp="12"></path><circle cx="145.2" cy="266.353" r="36.8" fill="rgb(47,46,65)" coriginal="rgb(47,46,65)" colortype="32" awdzp="32"></circle><path fill="rgb(159,97,106)" d="M105.5 727.5l-7 30h17l7-34-17 4zm82 0v28l17 2v-30h-17zm-87-318s2 43 4 46l20 46 9-28s-14-23-12-36l.74-28.997z" coriginal="rgb(159,97,106)" colortype="19" awdzp="19"></path><circle cx="157.5" cy="277.5" r="28" fill="rgb(159,97,106)" coriginal="rgb(159,97,106)" colortype="19" awdzp="19"></circle><path d="M134.5 280.5s1 40-6 46l40 1s-10-28-2-34l-32-13z" fill="rgb(159,97,106)" coriginal="rgb(159,97,106)" colortype="19" awdzp="19"></path><path d="M306.5 381.5s-6-11-14-10-34 3-35 5-4 9-6 11-17 5-18 17l36 85s-5 17-4 21-5 16-4 21-15 35-7 74v63s-27 109-19 117 35 3 40 0l26-154 10-51 1 112s-2 94 5 97 34 4 36-2c1.56-4.68 9.202-129.189 12.491-183.766a203.905 203.905 0 0 0-4.403-56.175c-4.162-18.878-10.204-41.057-17.088-50.058-13-17-21-71-21-71l17-31s-10-10-16-10l-18-4z" transform="translate(-135 -56)" fill="rgb(47,46,65)" coriginal="rgb(47,46,65)" colortype="32" awdzp="32"></path><path d="M104.5 341.5l-5.274 3.589s-3.726 64.411-.726 68.411 23.857 2.048 25.429-1.476l-19.429-70.524z" fill="rgb(47,46,65)" coriginal="rgb(47,46,65)" colortype="32" awdzp="32"></path><path d="M186.5 401.5s1 42 7 54l28 62s-1.277 55.032 9.861 41.516l4.139-45.516-19-74s-10-33-9-43l-21 5z" fill="rgb(159,97,106)" coriginal="rgb(159,97,106)" colortype="19" awdzp="19"></path><path d="M204.5 739.299s1-.799 4 2.201 11 7 10 18l-7 13v-3h-3v5s-5 16-28 6c0 0-1-8 0-13s1-29 4-28 11 2 13 6 8 2.598 7-6.201zm-103 1s-1-.799-4 2.201-11 7-10 18l7 13v-3h3v5s5 16 28 6c0 0 1-8 0-13s-1-29-4-28-11 2-13 6-8 2.598-7-6.201zm90-403.799l14 3s0 22 4 31 11 30 8 31-31 15-33 7-7-72 7-72z" fill="rgb(47,46,65)" coriginal="rgb(47,46,65)" colortype="32" awdzp="32"></path><circle cx="105.334" cy="217.9" r="36.8" fill="rgb(47,46,65)" coriginal="rgb(47,46,65)" colortype="32" awdzp="32"></circle><path d="M208.592 304.372a36.802 36.802 0 0 0 56.829-19.323 36.802 36.802 0 1 1-71.787-15.091 36.788 36.788 0 0 0 14.958 34.414z" transform="translate(-135 -56)" fill="rgb(47,46,65)" coriginal="rgb(47,46,65)" colortype="32" awdzp="32"></path><circle cx="135.387" cy="272.486" r="26.987" fill="rgb(47,46,65)" coriginal="rgb(47,46,65)" colortype="32" awdzp="32"></circle><ellipse cx="158.08" cy="262.366" rx="23.92" ry="18.707" fill="rgb(47,46,65)" coriginal="rgb(47,46,65)" colortype="32" awdzp="32"></ellipse><ellipse cx="164.46" cy="281.535" rx="4.54" ry="8.032" fill="rgb(160,97,106)" coriginal="rgb(160,97,106)" colortype="18" awdzp="18"></ellipse><path fill="rgb(241,241,241)" d="M406.203 21.663l511.438 153.578-123.38 410.875-511.438-153.578z" coriginal="rgb(241,241,241)" colortype="2" awdzp="2"></path><path stroke="#3f3d56" stroke-miterlimit="10" stroke-width="2" d="M611.165 141.893l121.14 48.965" fill="none"></path><path fill="rgb(63,61,86)" d="M614.244 151.96l1.814-.847-4.182-8.931 9.214-3.518-.716-1.869-11.221 4.287 5.091 10.878zm108.852 43.998l-.716-1.869 9.213-3.517-4.181-8.932 1.814-.847 5.09 10.88-11.22 4.285z" coriginal="rgb(63,61,86)" colortype="30" awdzp="30"></path><circle cx="671.735" cy="166.375" r="11" fill="rgb(63,61,86)" coriginal="rgb(63,61,86)" colortype="30" awdzp="30"></circle><path stroke="#3f3d56" stroke-miterlimit="10" stroke-width="2" d="M601.934 481.351l111.603-67.951" fill="none"></path><path fill="rgb(63,61,86)" d="M611.848 484.891l.403-1.961-9.661-1.977 2.678-9.492-1.927-.542-3.259 11.561 11.766 2.411zm100.282-61.058l-1.927-.542 2.679-9.49-9.662-1.979.404-1.96 11.767 2.412-3.261 11.559z" coriginal="rgb(63,61,86)" colortype="30" awdzp="30"></path><circle cx="657.735" cy="447.375" r="11" fill="rgb(63,61,86)" coriginal="rgb(63,61,86)" colortype="30" awdzp="30"></circle><path stroke="#3f3d56" stroke-miterlimit="10" stroke-width="2" d="M461.716 266.044l.039 130.662" fill="none"></path><path fill="rgb(63,61,86)" d="M453.538 272.674l1.465 1.364 6.711-7.226 6.717 7.222 1.464-1.365-8.182-8.794-8.175 8.799zm.035 117.408l1.465-1.365 6.715 7.222 6.713-7.226 1.465 1.364-8.177 8.798-8.181-8.793z" coriginal="rgb(63,61,86)" colortype="30" awdzp="30"></path><circle cx="461.735" cy="331.375" r="11" fill="rgb(63,61,86)" coriginal="rgb(63,61,86)" colortype="30" awdzp="30"></circle><path fill="rgb(63,61,86)" d="M369 0h182v226h-182z" coriginal="rgb(63,61,86)" colortype="30" awdzp="30"></path><path d="M583.621 140.134h-41.304a144.462 144.462 0 0 1 0-49.247h41.304a88.612 88.612 0 0 0 0 49.247z" transform="translate(-135 -56)" fill="rgb(255,101,132)" coriginal="rgb(255,101,132)" colortype="10" awdzp="10"></path><path d="M606.379 165.112h41.304a144.462 144.462 0 0 0 0-49.247h-41.304a88.612 88.612 0 0 1 0 49.247zm-39 82h41.304a144.462 144.462 0 0 0 0-49.247h-41.304a88.612 88.612 0 0 1 0 49.247z" transform="translate(-135 -56)" fill="rgb(108,99,255)" coriginal="rgb(108,99,255)" colortype="12" awdzp="12"></path><path fill="rgb(63,61,86)" d="M748 215h182v226h-182z" coriginal="rgb(63,61,86)" colortype="30" awdzp="30"></path><path fill="rgb(108,99,255)" d="M774 263h130v6h-130zm0 21h130v6h-130zm0 21h130v6h-130zm0 21h130v6h-130zm0 21h130v6h-130zm31 22h68v24h-68z" coriginal="rgb(108,99,255)" colortype="12" awdzp="12"></path><path fill="rgb(63,61,86)" d="M385 447h182v226h-182z" coriginal="rgb(63,61,86)" colortype="30" awdzp="30"></path><path fill="rgb(108,99,255)" d="M411.297 572.806h130v6h-130zm0 21h130v6h-130zm0 21h130v6h-130zm0 21h130v6h-130z" coriginal="rgb(108,99,255)" colortype="12" awdzp="12"></path><path d="M586.121 583.441h-41.304a144.462 144.462 0 0 1 0-49.247h41.304a88.612 88.612 0 0 0 0 49.247z" transform="translate(-135 -56)" fill="rgb(108,99,255)" opacity=".3" coriginal="rgb(108,99,255)" colortype="12" awdzp="12"></path><path fill="rgb(108,99,255)" opacity=".3" d="M468.297 482.806h76v5h-76zm0 18h76v5h-76zm0 18h76v5h-76zm0 18h76v5h-76z" coriginal="rgb(108,99,255)" colortype="12" awdzp="12"></path></svg>