<?xml version="1.0" encoding="UTF-8" standalone="no"?>
<svg
   xmlns:dc="http://purl.org/dc/elements/1.1/"
   xmlns:cc="http://creativecommons.org/ns#"
   xmlns:rdf="http://www.w3.org/1999/02/22-rdf-syntax-ns#"
   xmlns:svg="http://www.w3.org/2000/svg"
   xmlns="http://www.w3.org/2000/svg"
   xmlns:sodipodi="http://sodipodi.sourceforge.net/DTD/sodipodi-0.dtd"
   xmlns:inkscape="http://www.inkscape.org/namespaces/inkscape"
   width="32"
   height="32"
   viewBox="0 0 32 32"
   preserveAspectRatio="none"
   id="svgid1"
   repair="1"
   version="1.1"
   sodipodi:docname="world.svg"
   inkscape:version="0.92.4 (5da689c313, 2019-01-14)">
  <metadata
     id="metadata2123">
    <rdf:RDF>
      <cc:Work
         rdf:about="">
        <dc:format>image/svg+xml</dc:format>
        <dc:type
           rdf:resource="http://purl.org/dc/dcmitype/StillImage" />
        <dc:title></dc:title>
      </cc:Work>
    </rdf:RDF>
  </metadata>
  <defs
     id="defs2121" />
  <sodipodi:namedview
     pagecolor="#ffffff"
     bordercolor="#666666"
     borderopacity="1"
     objecttolerance="10"
     gridtolerance="10"
     guidetolerance="10"
     inkscape:pageopacity="0"
     inkscape:pageshadow="2"
     inkscape:window-width="1920"
     inkscape:window-height="1046"
     id="namedview2119"
     showgrid="false"
     inkscape:zoom="22.627417"
     inkscape:cx="18.694726"
     inkscape:cy="18.047195"
     inkscape:window-x="-11"
     inkscape:window-y="-11"
     inkscape:window-maximized="1"
     inkscape:current-layer="svgid1" />
  <path
     id="MTBteHk3NTAxMDAwMDAwMDAwMHh6czM5MA"
     fill="rgb(117,234,156)"
     d="M16.5 24.5c-.994 0-2-1.03-2-3 0-1.9-.41-3-2.5-3-1.978 0-2.5-1.962-2.5-3 0-1.383.836-4 4-4 2.86 0 2.994-1.803 3-2.01 0 0-.012-.99-1-.99-.42 0-1.01.17-1.69.37-.887.265-2.106.63-3.31.63-.59 0-1.154-.337-1.343-.802-.093-.23-.17-.692.34-1.202.248-.237.54-.478.842-.718.83-.68 1.782-1.456 2.063-2.59l.073-.294.296-.07c.902-.215 1.82-.324 2.727-.324 5.85 0 10.94 4.36 11.843 10.143l.07.444-.435.116c-.735.197-1.57.297-2.48.297-2.482 0-3.047-.373-3.41-.755-.13-.127-.247-.245-.59-.245-.79 0-1 1.257-1 2 0 .004.003.446.294.736.175.175.412.264.706.264.582 0 .975.384 1 .98 0 .04-.022 2.03-1.996 3.018-2.004 1-2.004 2.02-2.004 3.002 0 .58-.384.973-.978 1h-.02z"
     class="stshockcolor"
     data-st="fill:#75EA9C;;"
     coriginal="rgb(117,234,156)"
     colortype="8"
     awdzp="8"
     style="fill:#75ea9c;fill-opacity:1;stroke:none;stroke-opacity:1" />
  <path
     fill="rgb(172,240,242)"
     d="M15.5 27.5c-6.617 0-12-5.383-12-12 0-5.064 3.216-9.605 8.003-11.3l1.263-.448-.66 1.165c-.414.727-1.046 1.273-1.77 1.862-.33.266-.615.496-.826.716-.233.23-.575.675-.358 1.202.193.463.76.8 1.348.8 1.182 0 2.36-.35 3.308-.63.77-.224 1.304-.37 1.692-.37.58 0 .974.38 1 .968 0 .104-.034 2.032-3 2.032-2.067 0-3.046 1.09-3.503 2.003-.49.99-.497 1.988-.497 1.998 0 .03.003.768.31 1.496.413.984 1.17 1.504 2.19 1.504 2.09 0 2.5 1.1 2.5 3 0 2.062 1.037 3 2 3 .01 0 1-.012 1-1 0-.983 0-2 1.996-2.997 1.977-.99 2.004-2.92 2.004-3 0-.01-.012-1-1-1-.58 0-.974-.384-1-.978 0-.042.012-2.022 1-2.022.29 0 .412.075.593.255.314.315.744.745 3.407.745.876 0 1.662-.086 2.34-.255l.572-.144.046.59c.02.274.042.537.042.81 0 6.618-5.383 12-12 12z"
     class="st0"
     coriginal="rgb(172,240,242)"
     colortype="1"
     awdzp="1"
     id="path2114" />
  <path
     fill="rgb(77,81,82)"
     d="M15.5 3C8.61 3 3 8.61 3 15.5S8.61 28 15.5 28 28 22.39 28 15.5 22.39 3 15.5 3zm0 1c5.73 0 10.49 4.22 11.35 9.72-.67.18-1.45.28-2.35.28-2.46 0-2.83-.37-3.05-.6-.17-.17-.41-.4-.95-.4-1.11 0-1.5 1.35-1.5 2.5 0 .06.01.66.44 1.09.19.19.52.41 1.06.41.4 0 .49.27.5.5 0 .02-.02 1.7-1.72 2.55C17 21.19 17 22.47 17 23.5c0 .4-.28.49-.5.5-.75 0-1.5-.86-1.5-2.5 0-1.82-.36-3.5-3-3.5-1.97 0-2-2.4-2-2.5 0-.14.06-3.5 3.5-3.5 3.46 0 3.5-2.48 3.5-2.5 0-.6-.4-1.5-1.5-1.5-.49 0-1.11.18-1.83.39-.97.29-2.07.61-3.17.61-.38 0-.77-.22-.88-.49-.08-.2-.01-.42.23-.66.23-.22.51-.45.8-.68.87-.71 1.92-1.57 2.24-2.86.84-.2 1.71-.31 2.61-.31zm0 23C9.16 27 4 21.84 4 15.5c0-5 3.21-9.25 7.67-10.83-.38.67-1.01 1.2-1.65 1.72-.32.26-.63.51-.87.76-.53.52-.7 1.16-.46 1.74.27.65 1.02 1.11 1.81 1.11 1.24 0 2.47-.36 3.45-.65.62-.18 1.21-.35 1.55-.35.4 0 .49.27.5.49 0 .16-.11 1.51-2.5 1.51-2.32 0-3.43 1.24-3.95 2.28C9.01 14.37 9 15.45 9 15.5c0 .03 0 .86.35 1.69C9.84 18.36 10.78 19 12 19c1.55 0 2 .56 2 2.5 0 2.4 1.29 3.5 2.5 3.5.6 0 1.5-.4 1.5-1.5 0-.95 0-1.69 1.72-2.55C21.97 19.82 22 17.59 22 17.5c0-.6-.4-1.5-1.5-1.5-.4 0-.49-.28-.5-.5 0-.6.2-1.5.5-1.5.13 0 .13 0 .24.11.47.47 1.1.89 3.76.89.92 0 1.74-.09 2.46-.27.02.26.04.51.04.77C27 21.84 21.84 27 15.5 27z"
     class="st1"
     coriginal="rgb(77,81,82)"
     colortype="14"
     awdzp="14"
     id="path2116"
     style="fill:none;stroke:#8c8c8c;stroke-opacity:1;stroke-width:0.2;stroke-miterlimit:4;stroke-dasharray:none" />
</svg>
