<svg xmlns="http://www.w3.org/2000/svg" width="846.02" height="713.53" viewBox="0 0 846.02036 713.52973" id="svgid7" repair="1" xmlns:xlink="http://www.w3.org/1999/xlink"><path d="M93.483 679.876c0 22.469-13.356 30.314-29.834 30.314q-.573 0-1.143-.013c-.763-.016-1.52-.053-2.267-.104-14.871-1.052-26.424-9.301-26.424-30.197 0-21.625 27.634-48.912 29.71-50.932l.004-.004.12-.116s29.834 28.583 29.834 51.052z" fill="rgb(108,99,255)" coriginal="rgb(108,99,255)" colortype="12" awdzp="12"></path><path d="M62.563 706.752l10.912-15.247-10.939 16.921-.029 1.75c-.763-.016-1.52-.053-2.267-.104l1.176-22.479-.009-.174.02-.033.111-2.123-10.966-16.963 11.001 15.37.025.451.889-16.985-9.388-17.528 9.503 14.547.925-35.212.004-.12v.116l-.154 27.767 9.347-11.008-9.385 13.4-.247 15.207 8.727-14.594-8.763 16.832-.138 8.454 12.669-20.313-12.717 23.263z" fill="rgb(63,61,86)" coriginal="rgb(63,61,86)" colortype="30" awdzp="30"></path><path d="M733.091 394.388c0 176.179-79.992 315.163-178.5 319-128.463 5.003-296.357-123.086-178.5-319 90.818-150.967 79.917-319 178.5-319s178.5 142.821 178.5 319z" fill="rgb(242,242,242)" coriginal="rgb(242,242,242)" colortype="1" awdzp="1"></path><path fill="rgb(108,99,255)" d="M374.947 488.049h254.514v221.025h-254.514z" coriginal="rgb(108,99,255)" colortype="12" awdzp="12"></path><path stroke="#3f3d56" stroke-miterlimit="10" stroke-width="2" fill="none" d="M0 709.074h846.02"></path><path d="M735.707 93.235a24.368 24.368 0 0 0-9.779 46.688 21.579 21.579 0 0 1 .424-5.591c.468-1.98 3.133-13.282 3.133-13.282a9.302 9.302 0 0 1-.783-3.851c0-3.611 2.089-6.309 4.699-6.309 2.219 0 3.285 1.664 3.285 3.655 0 2.23-1.425 5.559-2.154 8.648a3.767 3.767 0 0 0 3.851 4.688c4.612 0 7.723-5.928 7.723-12.955 0-5.341-3.601-9.333-10.138-9.333a11.546 11.546 0 0 0-11.998 11.672 7.024 7.024 0 0 0 1.61 4.775 1.191 1.191 0 0 1 .348 1.36l-.5 1.958a.837.837 0 0 1-1.218.609c-3.405-1.392-4.993-5.113-4.993-9.311 0-6.918 5.841-15.218 17.415-15.218 9.301 0 15.425 6.733 15.425 13.956 0 9.562-5.319 16.697-13.151 16.697-2.632 0-5.102-1.425-5.95-3.035 0 0-1.414 5.613-1.719 6.701a20.253 20.253 0 0 1-2.448 5.221 24.37 24.37 0 1 0 6.918-47.743zM976.266 269.458a21.291 21.291 0 0 1-6.048 1.664 10.568 10.568 0 0 0 4.634-5.831 20.926 20.926 0 0 1-6.69 2.556 10.528 10.528 0 0 0-18.22 7.201 10.311 10.311 0 0 0 .272 2.404 29.846 29.846 0 0 1-21.712-11.019 10.552 10.552 0 0 0 3.274 14.076 10.286 10.286 0 0 1-4.786-1.316v.131a10.541 10.541 0 0 0 8.452 10.334 10.601 10.601 0 0 1-2.774.37 9.936 9.936 0 0 1-1.98-.196 10.548 10.548 0 0 0 9.844 7.321 21.115 21.115 0 0 1-13.086 4.514 21.348 21.348 0 0 1-2.513-.152 29.437 29.437 0 0 0 16.121 4.764c19.395 0 29.99-16.067 29.99-30.001 0-.457-.011-.914-.033-1.36a21.438 21.438 0 0 0 5.254-5.461zM570.912 124.252h-37.159a2.307 2.307 0 0 0-2.306 2.306v37.159a2.307 2.307 0 0 0 2.306 2.306h18.579v-16.534h-4.993v-6.092h4.993v-4.503c0-5.395 3.742-8.332 8.561-8.332 2.306 0 4.786.174 5.363.25v5.635h-3.84c-2.622 0-3.122 1.24-3.122 3.068v3.883h6.244l-.816 6.092h-5.428v16.534h11.618a2.307 2.307 0 0 0 2.306-2.306v-37.159a2.307 2.307 0 0 0-2.306-2.306zM575.598 278.927a8.728 8.728 0 0 1 8.702 8.702v17.405a8.728 8.728 0 0 1-8.702 8.702h-17.405a8.728 8.728 0 0 1-8.702-8.702v-17.405a8.728 8.728 0 0 1 8.702-8.702h17.405m0-3.481h-17.405a12.219 12.219 0 0 0-12.183 12.183v17.405a12.219 12.219 0 0 0 12.183 12.183h17.405a12.219 12.219 0 0 0 12.183-12.183v-17.405a12.219 12.219 0 0 0-12.183-12.183zM578.208 287.63a2.611 2.611 0 1 1 2.611-2.611 2.604 2.604 0 0 1-2.611 2.611zm-11.313 1.74a6.962 6.962 0 1 1-6.962 6.962 6.968 6.968 0 0 1 6.962-6.962m0-3.481a10.443 10.443 0 1 0 10.443 10.443 10.445 10.445 0 0 0-10.443-10.443zM879.574 103.748h-34.853a3.407 3.407 0 0 0-3.568 3.252v34.929a3.674 3.674 0 0 0 3.568 3.579h34.842a3.488 3.488 0 0 0 3.35-3.579v-34.929a3.202 3.202 0 0 0-3.339-3.252zm-25.476 34.809h-5.983v-18.601h5.983zm-2.785-21.429h-.044a3.253 3.253 0 1 1 .044 0zm24.649 21.429h-5.983v-10.171c0-2.437-.87-4.101-3.035-4.101a3.273 3.273 0 0 0-3.068 2.208 4.028 4.028 0 0 0-.207 1.468v10.595h-5.983v-18.601h5.983v2.589a6.056 6.056 0 0 1 5.395-3.024c3.927 0 6.897 2.589 6.897 8.169z" transform="translate(-176.99 -93.235)" fill="rgb(63,61,86)" coriginal="rgb(63,61,86)" colortype="30" awdzp="30"></path><path d="M537.446 268.119s42.346 1.151 49.34 3.696l10.121 20.74-32.879 10.334-24.592-1.393-18.508 1.308 10.334-27.065z" fill="rgb(47,46,65)" coriginal="rgb(47,46,65)" colortype="32" awdzp="32"></path><path d="M539.273 254.223s2.786 10.761-3.397 18.38l26.582 34.77 17.285-2.971s-3.81-33.064 1.308-41.437l-41.778-8.742z" fill="rgb(159,97,106)" coriginal="rgb(159,97,106)" colortype="19" awdzp="19"></path><path d="M539.273 254.223s2.786 10.761-3.397 18.38l26.582 34.77 17.285-2.971s-3.81-33.064 1.308-41.437l-41.778-8.742z" opacity=".1"></path><path fill="rgb(159,97,106)" d="M654.23 568.843l-38.138 50.577 26.027 15.196 35.822-58.609-23.711-7.164z" coriginal="rgb(159,97,106)" colortype="19" awdzp="19"></path><path d="M627.478 620.273s-14.044-16.319-13.419-12.68-9.993 34.5-.114 37.485 94.601 10.903 95.766 1.336l-25.274-16.262s-15.708-15.096-19.19-13.561l-37.769 3.682z" fill="rgb(47,46,65)" coriginal="rgb(47,46,65)" colortype="32" awdzp="32"></path><path fill="rgb(159,97,106)" d="M645.673 617.145l30.463 51.899 23-13.319-30.719-42.489-22.744 3.909z" coriginal="rgb(159,97,106)" colortype="19" awdzp="19"></path><path d="M693.762 493.674l-9.041 12.793s-43.1 59.859-38.522 64.692 23.64 23.099 33.334 19.56l44.137-64.721-8.984-35.921zM508.1 481.563s9.652 18.01 34.116 24.108 50.023 18.565 50.932 18.408 3.483-1.535 4.108 2.104l7.335 9.979s27.023 91.829 37.343 91.928 31.529-7.292 31.969-10.178-31.6-96.662-31.913-98.481l-3.753-21.834s42.375 6.766 46.327 7.96l39.105 20.441s35.836-25.829 2.317-51.913l-91.132-45.218-20.669-5.814-18.013-1.075-2.652-10.171-42.662 2.461-44.521 18.892z" fill="rgb(47,46,65)" coriginal="rgb(47,46,65)" colortype="32" awdzp="32"></path><circle cx="564.405" cy="242.411" r="33.232" fill="rgb(159,97,106)" coriginal="rgb(159,97,106)" colortype="19" awdzp="19"></circle><path d="M534.34 269.121l3.997-.687s7.219 27.795 29.551 32.386c0 0 11.019-13.2 10.549-15.428s8.727-14.111 13.617-7.458-1.194 123.841 2.914 125.945 12.921 4.336 5.828 12.111-35.267 18.238-41.508 14.627-18.991-34.201-24.507-44.493l-14.343-45.303s-11.273-38.338-4.336-47.023l18.238-24.677z" fill="rgb(208,205,225)" coriginal="rgb(208,205,225)" colortype="6" awdzp="6"></path><path d="M743.135 506.626a189.572 189.572 0 0 1-3.807 24.268c-1.63 6.508-3.527 10.437-5.693 10.27-5.526-.413-8.037 7.691-9.332 17.035-1.384 9.913-1.384 21.221-2.143 25.217-1.005 5.28-7.434 9.31-20.283 8.127a90.66 90.66 0 0 1-22.348-5.481c-17.347-6.307-16.834-57.455-13.931-95.409 1.775-23.263 4.443-41.582 4.443-41.582s-5.269-15.717-6.954-26.49a35.211 35.211 0 0 1-.502-5.95c.257-9.41 17.436-34.839 27.818-50.679 10.393-15.84 24.57-4.22 24.57-4.22l-4.934 14.891s7.647 11.799 7.702 23.029 18.307 19.334 24.86 24.77c4.119 3.416 4.019 49.016.536 82.203z" transform="translate(-176.99 -93.235)" fill="rgb(47,46,65)" coriginal="rgb(47,46,65)" colortype="32" awdzp="32"></path><path d="M580.575 273.819s1.198 1.416 6.681.725c6.576-.828 15.618 1.447 17.719 7.726 3.852 11.514 14.713 58.352 14.713 58.352s4.521 53.548 6.553 65.375 1.024 22.303 3.028 28.515-19.787-11.585-27.819-9.268-13.192-27.705-12.182-38.181 1.862-21.863-.924-32.623 2.153-39.24 1.969-45.765-17.709-22.969-9.737-34.855z" fill="rgb(47,46,65)" coriginal="rgb(47,46,65)" colortype="32" awdzp="32"></path><path d="M604.088 440.244s35.186 19.196 38.553 46.518l-47.062-26.455zM624.174 420.869s10.782 54.345 27.577 51.458l-9.382-54.585z" fill="rgb(159,97,106)" coriginal="rgb(159,97,106)" colortype="19" awdzp="19"></path><path d="M681.694 657.786s-8.6 9.908-10.732 8.401-7.036 19.005-2.615 22.929 21.45 10.363 21.635 16.887 45.857 5.231 47.492-1.606-5.729-22.431-10.903-25.288l-24.306-29.155s-14.984 2.189-20.571 7.832z" fill="rgb(47,46,65)" coriginal="rgb(47,46,65)" colortype="32" awdzp="32"></path><path d="M775.473 566.716c-8.16-5.76-30.943-7.189-51.171-8.517-8.874-.569-17.258-1.127-23.699-2.032-6.207-.86-11.788-6.53-16.744-14.981-7.513-12.804-13.585-32.004-18.262-50.534 1.775-23.263 4.443-41.582 4.443-41.582s-5.269-15.717-6.954-26.49a14.176 14.176 0 0 1 4.487-4.041c21.455-9.209 41.939 81.422 44.54 95.644l.112.647c1.261 7.323 14.891 13.585 27.103 16.063 7.524 1.529 14.523 1.63 17.749-.357 8.473-5.202 34.527 15.617 36.503 16.209 1.976.603-6.385 28.264-18.106 19.97z" transform="translate(-176.99 -93.235)" opacity=".1"></path><path d="M490.587 319.726s-15.594 7.363-8.742 41.778 20.655 92.923 41.764 95.851 63.143 2.26 74.87 10.547 20.086-19.375 18.11-19.972-28.032-21.408-36.504-16.205-42.815-3.881-44.848-15.707-22.844-105.66-44.649-96.292zM602.956 303.222l17.138 39.767s1.725-.861 3.73 5.351 2.943 11.67 6.454 15.75 19.134 62.276 19.603 65.005-21.577 12.138-26.503 4.555l-20.421-130.429z" fill="rgb(47,46,65)" coriginal="rgb(47,46,65)" colortype="32" awdzp="32"></path><path d="M722.488 335.183c1.274-.34 1.461-2.031 1.503-3.348.229-7.055 4.477-14.295 11.231-16.349a18.881 18.881 0 0 1 7.959-.438 30.145 30.145 0 0 1 10.778 3.596c1.759.989 3.484 2.18 5.48 2.482 1.318.2 7.023 1.858 8.335 2.092 2.885.513 5.566 3.094 8.334 2.134 2.648-.919 3.235-4.348 3.299-7.15.146-6.385-4.701-15.221-8.97-19.971-3.24-3.604-8.118-5.268-12.886-6.133a85.79 85.79 0 0 0-16.853-1.025c-7.631.136-15.474.725-22.355 4.027s-12.661 9.873-12.991 17.499c-.069 1.588.095 3.183-.038 4.768-.326 3.865-2.378 7.356-3.341 11.113a20.335 20.335 0 0 0 2.84 16.25c2.554 3.758 6.568 7.157 6.42 11.699l5.537-5.737a4.547 4.547 0 0 0 1.352-5.556l-1.96-7.645a6.898 6.898 0 0 1-.17-4.255c2.101-5.192 4.372 2.515 6.496 1.948z" transform="translate(-176.99 -93.235)" fill="rgb(47,46,65)" coriginal="rgb(47,46,65)" colortype="32" awdzp="32"></path><path d="M292.583 468.934c0 105.949-62.985 142.942-140.681 142.942s-140.681-36.993-140.681-142.942l140.681-240.732s140.681 134.784 140.681 240.732z" fill="rgb(242,242,242)" coriginal="rgb(242,242,242)" colortype="1" awdzp="1"></path><path fill="rgb(63,61,86)" d="M146.777 595.669l1.441-88.669 59.961-109.697-59.735 95.787.647-39.87 41.326-79.364-41.154 68.814 1.165-71.707 44.252-63.184-44.069 51.908.728-131.485-4.574 174.062.375-7.18-44.991-68.867 44.27 82.651-4.192 80.085-.125-2.126-51.867-72.472 51.71 79.981-.524 10.016-.094.15.043.822-10.636 203.182h14.21l1.705-104.948 51.583-79.785-51.455 71.896z" coriginal="rgb(63,61,86)" colortype="30" awdzp="30"></path></svg>