<svg xmlns="http://www.w3.org/2000/svg" width="1120" height="829.801" viewBox="0 0 1120 829.80067" id="svgid9" repair="1" xmlns:xlink="http://www.w3.org/1999/xlink"><ellipse cx="975.579" cy="811.059" rx="144.421" ry="18.742" fill="rgb(63,61,86)" coriginal="rgb(63,61,86)" colortype="30" awdzp="30"></ellipse><path fill="rgb(242,242,242)" d="M0 27.5h436v272h-436z" coriginal="rgb(242,242,242)" colortype="1" awdzp="1"></path><path stroke="#3f3d56" stroke-miterlimit="10" stroke-width="2" d="M27.5 1h436v272h-436z" fill="none"></path><path d="M352.468 237.568a94 94 0 0 0-66.468-160.468v94z" transform="translate(-40 -34.6)" fill="rgb(63,61,86)" coriginal="rgb(63,61,86)" colortype="30" awdzp="30"></path><path d="M286 77.1a94.011 94.011 0 0 0-44.968 176.564l44.968-82.564z" transform="translate(-40 -34.6)" fill="rgb(108,99,255)" coriginal="rgb(108,99,255)" colortype="12" awdzp="12"></path><path d="M352.468 237.568l-66.468-66.468-44.968 82.564a94.049 94.049 0 0 0 111.436-16.096z" transform="translate(-40 -34.6)" fill="rgb(87,90,137)" coriginal="rgb(87,90,137)" colortype="22" awdzp="22"></path><path fill="rgb(108,99,255)" d="M44 216.5h18v18h-18z" coriginal="rgb(108,99,255)" colortype="12" awdzp="12"></path><path fill="rgb(63,61,86)" d="M70 216.5h18v18h-18z" coriginal="rgb(63,61,86)" colortype="30" awdzp="30"></path><path fill="rgb(87,90,137)" d="M96 216.5h18v18h-18z" coriginal="rgb(87,90,137)" colortype="22" awdzp="22"></path><path fill="rgb(63,61,86)" d="M355 220.5h74v3h-74zm0 9h74v3h-74zm0 9h74v3h-74z" coriginal="rgb(63,61,86)" colortype="30" awdzp="30"></path><path fill="rgb(242,242,242)" d="M137 406.5h248v272h-248z" coriginal="rgb(242,242,242)" colortype="1" awdzp="1"></path><path stroke="#3f3d56" stroke-miterlimit="10" stroke-width="2" d="M162 380.5h248v272h-248z" fill="none"></path><path fill="rgb(108,99,255)" d="M175 621.814h13.371v13.371h-13.371z" coriginal="rgb(108,99,255)" colortype="12" awdzp="12"></path><path fill="rgb(63,61,86)" d="M194.314 621.814h13.371v13.371h-13.371z" coriginal="rgb(63,61,86)" colortype="30" awdzp="30"></path><path fill="rgb(87,90,137)" d="M213.629 621.814h13.371v13.371h-13.371z" coriginal="rgb(87,90,137)" colortype="22" awdzp="22"></path><path fill="rgb(63,61,86)" d="M325 627.622h52v2.108h-52zm0 6.324h52v2.108h-52zm0 6.324h52v2.108h-52z" coriginal="rgb(63,61,86)" colortype="30" awdzp="30"></path><path d="M326 463.1v22a66 66 0 0 1 46.669 112.669l15.556 15.556a88 88 0 0 0-62.225-150.225z" transform="translate(-40 -34.6)" fill="rgb(63,61,86)" coriginal="rgb(63,61,86)" colortype="30" awdzp="30"></path><path d="M388.225 613.325l-15.556-15.556a65.983 65.983 0 0 1-86.6 5.872l-13.316 17.521a87.998 87.998 0 0 0 115.472-7.836z" transform="translate(-40 -34.6)" fill="rgb(87,90,137)" coriginal="rgb(87,90,137)" colortype="22" awdzp="22"></path><path d="M260 551.1a66 66 0 0 1 66-66v-22a87.999 87.999 0 0 0-53.247 158.061l13.316-17.521a65.885 65.885 0 0 1-26.069-52.541z" transform="translate(-40 -34.6)" fill="rgb(108,99,255)" coriginal="rgb(108,99,255)" colortype="12" awdzp="12"></path><path d="M931.624 140.993s-4.08 30.311 6.412 33.808l7.578 30.311-31.476 23.899-27.979 2.332-6.995-36.14 4.08-9.326s15.738-18.653 4.663-37.888l43.717-6.995z" fill="rgb(255,185,185)" coriginal="rgb(255,185,185)" colortype="8" awdzp="8"></path><path d="M931.624 140.993s-4.08 30.311 6.412 33.808l7.578 30.311-31.476 23.899-27.979 2.332-6.995-36.14 4.08-9.326s15.738-18.653 4.663-37.888l43.717-6.995z" opacity=".1"></path><path d="M902.48 377.066l-36.722 86.269s-28.562-16.321-45.466-14.572l-37.888-18.653 20.984-101.424 39.054-107.836 54.209 34.391z" fill="rgb(87,90,137)" coriginal="rgb(87,90,137)" colortype="22" awdzp="22"></path><path d="M902.48 377.066l-36.722 86.269s-28.562-16.321-45.466-14.572l-37.888-18.653 20.984-101.424 39.054-107.836 54.209 34.391z" opacity=".1"></path><path fill="rgb(87,90,137)" d="M960.186 743.708v27.979h-26.23l4.08-32.642 22.15 4.663zm68.199-48.38l19.236 11.658-13.99 32.059-14.572-1.749-13.99-19.818 23.316-22.15z" coriginal="rgb(87,90,137)" colortype="22" awdzp="22"></path><path d="M965.432 368.906l34.391 81.023s-12.241 89.766-11.658 97.344 1.166 10.492-1.749 16.904-4.08 10.492-2.332 18.07 2.332 10.492 1.166 13.407-9.326 122.991-13.407 131.152 2.332 21.567-1.749 22.733-34.391-1.749-36.14-8.743 5.829-23.899 1.749-29.145.583-194.105-5.246-206.928l-69.948-24.482s-5.829-37.305-2.332-43.134l8.161-42.551zm-33.808 398.118s16.321-19.236 30.311 0c0 0 1.166 22.733 11.075 27.396s5.246 23.316-8.743 23.899-32.059 2.914-32.642-4.663 2.332-12.241-2.914-14.572v-15.738zm1.749-278.624s-.583 41.969-4.663 47.798-6.412 9.326-4.08 15.738 5.829 18.07 4.08 20.401l1.749 14.572s44.883 21.567 65.867 66.45c0 0 21.567 35.557 27.979 36.14s13.99-4.08 10.492 9.326-16.904 30.894-26.813 29.145l-17.487-18.653s-77.525-78.691-85.686-81.023-31.476-20.984-35.557-32.642-12.824-109.002-8.743-115.413l19.236-15.155zm100.841 204.596s36.14 1.166 36.722 9.909-15.155 60.621-12.824 72.862-18.07 40.22-31.476 34.391l-2.914-36.14s-13.407-41.386-11.075-41.969 25.647-7.578 24.482-14.572l-2.915-24.482z" fill="rgb(47,46,65)" coriginal="rgb(47,46,65)" colortype="32" awdzp="32"></path><circle cx="904.52" cy="136.039" r="36.14" fill="rgb(255,185,185)" coriginal="rgb(255,185,185)" colortype="8" awdzp="8"></circle><path d="M980.951 226.305s-19.818 20.984-34.391 17.487l-22.15-28.562-26.23-4.663s-18.653 82.771-18.653 90.932 18.653 96.178 18.653 111.916-15.155 25.065 8.161 24.482 12.241-8.161 46.049-8.743 39.054 6.995 46.049-5.246a97.523 97.523 0 0 1 17.487-21.567l-12.241-43.134-1.749-121.825s-14.944-29.145-21.753-26.813c0 0 3.683 12.824.769 15.738z" transform="translate(-40 -34.6)" fill="rgb(108,99,255)" coriginal="rgb(108,99,255)" colortype="12" awdzp="12"></path><path d="M933.771 170.812s31.078 3.407 39.822 9.819 33.225 11.075 32.642 15.738l-28.562 71.113s-12.824 52.461-1.749 64.702 52.461 145.724 45.466 156.799l-29.145-33.808s-29.728-96.178-46.049-112.499-17.487-104.338-17.487-108.419l5.061-63.445zm-45.458 6.76s-38.294-14.429-51.7-8.6l-21.567 6.995-4.663 57.124s-1.749 82.188-16.904 102.007-25.065 102.59-22.733 110.75-4.08 22.15 5.829 18.653l37.305-83.937s0-46.049 16.321-58.873 43.134-65.867 44.3-78.691l12.241-48.38z" fill="rgb(87,90,137)" coriginal="rgb(87,90,137)" colortype="22" awdzp="22"></path><path d="M1019.642 361.328s-17.487 32.642-19.818 38.471-18.653 45.466-41.969 36.722l22.733-51.295 10.492-35.557s27.396-5.829 28.562 11.658z" fill="rgb(255,185,185)" coriginal="rgb(255,185,185)" colortype="8" awdzp="8"></path><path d="M820.874 175.967h-5.829s-5.829-4.663-12.824-1.749-23.316-1.166-23.316.583-18.07-5.246-25.647-1.749l-34.974 4.663s-11.075 27.979-3.497 33.225 18.653 1.166 23.899 5.246 15.155-.583 18.653 4.663 16.321 14.572 19.236 8.743-2.914-11.075 9.326-4.663l31.476 6.412z" fill="rgb(87,90,137)" coriginal="rgb(87,90,137)" colortype="22" awdzp="22"></path><path d="M947.778 143.937c-4.89-1.13-9.967.122-14.92.934s-10.412 1.079-14.602-1.684c-3.094-2.041-4.997-5.418-6.783-8.665a9.973 9.973 0 0 1-1.459-3.823c-.21-2.402 1.318-4.594 2.94-6.377 7.537-8.285 18.551-12.819 29.658-14.26 9.13-1.184 18.65-.391 27.081 3.307s15.68 10.47 18.995 19.06a54.127 54.127 0 0 1 2.837 13.611 40.657 40.657 0 0 1 .191 10.308 44.188 44.188 0 0 1-1.998 7.468l-5.491 16.581a10.924 10.924 0 0 1-2.159 4.274 3.736 3.736 0 0 1-4.374.958 13.613 13.613 0 0 0 .197-5.5 4.641 4.641 0 0 0-3.662-3.693c-2.024-.215-3.753 1.354-5.673 2.03a6.979 6.979 0 0 1-8.811-5.245c-.303-1.896.206-3.925-.513-5.705-.842-2.086-3.074-3.179-4.751-4.677a10.936 10.936 0 0 1-3.001-11.366c.449-1.38 1.717-2.007 1.463-3.592-.333-2.08-3.399-3.534-5.165-3.942z" transform="translate(-40 -34.6)" fill="rgb(47,46,65)" coriginal="rgb(47,46,65)" colortype="32" awdzp="32"></path><path fill="rgb(242,242,242)" d="M507 236.5h248v272h-248z" coriginal="rgb(242,242,242)" colortype="1" awdzp="1"></path><path stroke="#3f3d56" stroke-miterlimit="10" stroke-width="2" d="M532 210.5h248v272h-248zm24 17v208h201" fill="none"></path><path fill="rgb(87,90,137)" d="M567 362.5h45v72h-45z" coriginal="rgb(87,90,137)" colortype="22" awdzp="22"></path><path fill="rgb(63,61,86)" d="M632 313.5h45v121h-45z" coriginal="rgb(63,61,86)" colortype="30" awdzp="30"></path><path fill="rgb(108,99,255)" d="M697 256.5h45v178h-45zm-144 195.314h13.371v13.371h-13.371z" coriginal="rgb(108,99,255)" colortype="12" awdzp="12"></path><path fill="rgb(63,61,86)" d="M572.314 451.814h13.371v13.371h-13.371z" coriginal="rgb(63,61,86)" colortype="30" awdzp="30"></path><path fill="rgb(87,90,137)" d="M591.629 451.814h13.371v13.371h-13.371z" coriginal="rgb(87,90,137)" colortype="22" awdzp="22"></path><path fill="rgb(63,61,86)" d="M703 457.622h52v2.108h-52zm0 6.324h52v2.108h-52zm0 6.324h52v2.108h-52z" coriginal="rgb(63,61,86)" colortype="30" awdzp="30"></path><path d="M724.308 177.682c10.628.462 18.526 10.101 17.376 20.677-1.042 9.582-4.884 21.505-16.987 26.084-21.567 8.161-20.401-37.888-16.321-39.637 2.72-1.166 6.995-7.513 15.933-7.124z" fill="rgb(255,185,185)" coriginal="rgb(255,185,185)" colortype="8" awdzp="8"></path><path d="M999.823 193.254l6.412 3.114s13.99 28.562 14.572 32.642 9.909 19.236 6.412 23.316-8.743 14.572-5.246 18.653 11.658 20.401 11.658 26.23-8.743 21.567-2.914 23.316 4.08 24.482 2.914 26.23l-16.321 30.311s-2.914-32.642-31.476-19.236c0 0-2.332-16.321 0-17.487s8.161-8.161 3.497-9.326-11.075-15.155-9.909-16.904 4.08-4.08 1.166-5.829-5.246-11.658-4.663-13.407l-6.412-9.909z" fill="rgb(87,90,137)" coriginal="rgb(87,90,137)" colortype="22" awdzp="22"></path></svg>